<svg width="191" height="56" viewBox="0 0 191 56" fill="none" xmlns="http://www.w3.org/2000/svg">
<path fill-rule="evenodd" clip-rule="evenodd" d="M186.892 39.7692C185.766 42.6857 183.972 44.8436 180.955 43.8821C178.755 43.1806 179.203 39.7229 180.596 36.3827C182.198 32.5404 184.477 31.8887 186.322 32.7291C188.305 33.6301 187.981 36.9418 186.892 39.7692ZM187.497 29.6168C191.307 30.8062 191.535 35.1969 190.406 39.3775C189.235 43.7148 186.706 47.5785 181.183 47.4182C178.456 47.3363 176.753 45.2709 175.931 42.6429C173.898 44.5374 168.282 51.4457 162.146 45.481C161.384 44.7403 160.95 43.1735 160.95 43.1735C160.95 43.1735 156.381 47.6782 152.934 47.2758C150.448 46.9873 150.591 43.4833 150.591 43.4833C150.591 43.4833 149.22 45.5629 146.474 46.7024C143.444 47.9559 141.079 45.7018 141.4 43.7468C141.781 41.4215 144.954 33.4093 144.954 33.4093C144.954 33.4093 142.347 33.2526 141.713 34.3245C141.079 35.3927 139.534 40.3247 136.735 43.8643C134.655 46.4959 130.945 48.2408 127.989 47.3434C126.198 46.7986 125.682 44.2881 125.682 44.2881C125.682 44.2881 122.694 47.6604 118.93 47.4111C116.263 47.2366 115.633 44.8792 116.117 42.9314C116.252 42.383 120.34 30.6994 120.34 30.6994L124.606 30.6424C124.606 30.6424 122.826 35.5209 122.317 37.1804C121.872 38.6297 120.355 42.1836 121.184 42.9136C122.94 44.459 125.575 41.7313 126.69 39.9544C127.712 38.3234 130.336 30.5605 130.336 30.5605L133.925 30.5106C133.925 30.5106 131.151 38.562 130.728 40.0007C130.015 42.4186 131.597 44.167 133.904 42.618C136.393 40.9479 137.629 37.5258 139.897 32.049C139.897 32.049 138.533 31.4044 138.302 30.24C138.038 28.8975 139.655 25.7852 141.717 26.5971C143.618 27.3449 143.326 28.5984 143.02 29.0471C142.753 29.4317 141.29 29.9409 141.745 30.329C142.312 30.8098 148.248 29.4317 148.647 31.6323C148.889 32.9642 147.333 36.1406 146.773 38.0813C146.043 40.6203 144.722 42.8388 146.524 43.3729C147.461 43.6507 150.986 42.1479 152.856 37.2801C153.361 35.9625 154.739 32.1879 155.43 30.2578L159.009 30.2115C159.009 30.2115 157.182 35.6456 156.662 37.159C155.786 39.7158 154.554 42.4293 156.659 42.8779C157.72 43.1059 160.302 42.0055 161.185 39.4024C162.606 35.1969 165.034 30.0762 169.372 29.4993C172.309 29.1076 174.168 30.1082 174.994 31.5042C175.08 31.6502 175.158 31.8033 175.222 31.9564C175.343 32.2555 175.415 32.5796 175.432 32.9143C175.514 34.5132 174.282 35.8058 172.687 35.8058C171.088 35.8058 169.731 34.5096 169.649 32.9143C169.639 32.6757 169.631 32.4549 169.699 32.2342C169.699 32.2342 168.335 32.0988 166.455 34.3245C165.02 36.0587 163.311 40.282 164.97 42.5503C166.377 44.4661 168.666 44.8507 170.81 43.6578C171.821 43.0916 173.908 41.7277 175.001 40.4066C176.422 38.6902 177.06 35.5387 178.491 33.1636C179.926 30.7741 183.028 28.2209 187.497 29.6168ZM160.544 26.9034C160.266 28.1639 158.991 28.8761 157.699 28.488C156.406 28.1034 155.583 26.768 155.861 25.5074C156.139 24.2433 157.414 23.5347 158.706 23.9192C159.999 24.3038 160.822 25.6392 160.544 26.9034ZM108.824 19.995C110.38 19.2828 113.742 17.7872 114.977 12.9015C116.384 7.34641 111.096 5.79382 109.045 9.18388C106.207 13.8773 108.265 18.7309 108.824 19.995ZM115.301 34.677C116.459 38.2629 115.066 43.1878 111.708 45.7659C106.563 49.7186 97.582 47.963 95.1036 43.0204C93.0311 38.8896 93.5617 35.1684 94.9932 32.0953C96.4532 28.9687 100.655 25.3971 107.578 24.5282C107.214 24.1756 106.873 23.7875 106.556 23.3637C103.084 24.6671 96.1291 25.9419 91.4251 22.6444C86.9062 19.4751 85.3322 12.0718 90.2321 6.02528H90.8517C88.6867 9.59695 88.9288 14.7497 91.6708 18.4282C94.1492 21.7542 100.128 22.8225 105.334 21.3233C104.586 19.7422 104.109 17.8976 104.01 15.9319C103.732 10.4089 106.356 5.98255 110.419 5.32377C112.1 5.03176 113.752 5.40567 114.831 6.11074C116.979 7.50665 118.603 11.4736 115.999 16.4554C114.522 19.2828 111.911 20.8461 110.006 21.7257C111.409 23.4278 113.094 24.7454 115.604 24.9626L115.351 25.7353C112.321 25.6214 107.467 25.7888 103.689 28.5877C99.245 31.8816 98.3797 35.6919 99.7791 39.4024C101.684 44.4519 108.753 44.865 111.655 40.8553C112.773 39.3134 113.111 36.7887 112.381 34.6806C111.691 32.69 109.786 31.3866 107.592 31.3866C105.395 31.3866 103.586 32.7505 102.927 34.6806H102.186C102.785 31.96 105.388 29.9053 108.34 29.9053C111.933 29.9017 114.44 31.9849 115.301 34.677Z" fill="white"/>
<path fill-rule="evenodd" clip-rule="evenodd" d="M17.0714 40.4778C16.7331 39.7478 15.8642 39.2208 15.0665 39.2208C13.927 39.2208 12.9264 40.0184 12.9264 41.2078C12.9264 42.5325 14.1514 42.9919 15.2197 43.3836C16.0031 43.6542 16.7509 43.9604 16.7509 44.929C16.7509 45.9154 15.9675 46.6953 14.9846 46.6953C13.9484 46.6953 13.3181 46.0329 13.0297 45.0964L12.2818 45.335C12.6059 46.6098 13.6742 47.4075 14.9846 47.4075C16.3948 47.4075 17.5165 46.4033 17.5165 44.9611C17.5165 42.123 13.692 43.0417 13.692 41.1544C13.692 40.4742 14.3721 39.9294 15.0345 39.9294C15.647 39.9294 16.1562 40.2677 16.4126 40.8125L17.0714 40.4778ZM22.014 39.933C23.9192 39.933 25.1584 41.3609 25.1584 43.1806C25.1584 45.0679 24.0723 46.6988 22.0639 46.6988C20.1588 46.6988 18.9694 45.0679 18.9694 43.2661C18.9729 41.5639 20.2122 39.933 22.014 39.933ZM25.8741 39.3881H25.1085V40.7484C24.4106 39.762 23.2568 39.2208 22.0496 39.2208C19.6887 39.2208 18.2073 40.9728 18.2073 43.2661C18.2073 45.5593 19.7029 47.411 22.0817 47.411C23.239 47.411 24.496 46.8342 25.0729 45.83L25.1085 47.2401H25.8741V39.3881ZM31.7854 39.933C33.7048 39.933 34.8799 41.5995 34.8799 43.4014C34.8799 45.1534 33.6549 46.6988 31.821 46.6988C29.9337 46.6988 28.6944 45.3207 28.6944 43.4868C28.6909 41.5995 29.7805 39.933 31.7854 39.933ZM28.7407 39.3881H27.9751V51.8302H28.7407V45.8834C29.4209 46.8876 30.5925 47.411 31.7996 47.411C34.1606 47.411 35.6419 45.6768 35.6419 43.3836C35.6419 41.0903 34.1641 39.2208 31.7676 39.2208C30.6103 39.2208 29.3532 39.7977 28.7763 40.8019L28.7407 39.3881ZM40.0255 39.933C41.9306 39.933 43.1699 41.3609 43.1699 43.1806C43.1699 45.0679 42.0838 46.6988 40.0754 46.6988C38.1702 46.6988 36.9809 45.0679 36.9809 43.2661C36.9809 41.5639 38.2236 39.933 40.0255 39.933ZM43.8821 39.3881H43.1164V40.7484C42.4185 39.762 41.2647 39.2208 40.0576 39.2208C37.6966 39.2208 36.2152 40.9728 36.2152 43.2661C36.2152 45.5593 37.7109 47.411 40.0896 47.411C41.2469 47.411 42.504 46.8342 43.0808 45.83L43.1164 47.2401H43.8821V39.3881ZM46.8377 40.1039H48.2158V39.3917H46.8377V36.5892H46.0721V39.3917H45.2067V40.1039H46.0721V47.2401H46.8377V40.1039ZM52.3394 39.2172C50.0604 39.2172 48.2621 41.0689 48.2621 43.3302C48.2621 45.5558 50.0817 47.4075 52.3394 47.4075C54.6505 47.4075 56.4702 45.6412 56.4702 43.3123C56.4702 40.987 54.6505 39.2172 52.3394 39.2172ZM52.2896 39.933C54.2267 39.933 55.7045 41.393 55.7045 43.3337C55.7045 45.2388 54.2089 46.6988 52.2896 46.6988C50.4378 46.6988 49.0277 45.1178 49.0277 43.3337C49.0277 41.5141 50.42 39.933 52.2896 39.933ZM61.7689 40.4778C61.4271 39.7478 60.5617 39.2208 59.7641 39.2208C58.6245 39.2208 57.6239 40.0184 57.6239 41.2078C57.6239 42.5325 58.8489 42.9919 59.9172 43.3836C60.7006 43.6542 61.4484 43.9604 61.4484 44.929C61.4484 45.9154 60.665 46.6953 59.6822 46.6953C58.6459 46.6953 58.0156 46.0329 57.7272 45.0964L56.9794 45.335C57.3034 46.6098 58.3717 47.4075 59.6822 47.4075C61.0923 47.4075 62.214 46.4033 62.214 44.9611C62.214 42.123 58.3895 43.0417 58.3895 41.1544C58.3895 40.4742 59.0697 39.9294 59.732 39.9294C60.3445 39.9294 60.8537 40.2677 61.1101 40.8125L61.7689 40.4778ZM3.92421 29.9693C5.82934 29.9693 7.06856 31.3973 7.06856 33.2169C7.06856 35.1043 5.98246 36.7352 3.97406 36.7352C2.06893 36.7352 0.879564 35.1043 0.879564 33.3024C0.883125 31.6003 2.12591 29.9693 3.92421 29.9693ZM7.78432 29.4245H7.01871V30.7848C6.2531 29.7984 5.30231 29.2536 4.02748 29.2536C1.7342 29.2536 0.117513 31.0732 0.117513 33.3309C0.117513 35.5245 1.64874 37.4438 3.92421 37.4438C5.11358 37.4438 6.28514 36.8492 6.9831 35.9126L7.01871 36.8812C7.01871 37.9353 6.93324 38.9537 6.32075 39.8546C5.74387 40.6879 4.78953 41.0262 3.8067 41.0262C2.22562 41.0262 0.851076 40.0078 0.765613 38.3768H0C0.117513 40.5348 1.81967 41.742 3.87436 41.742C5.11358 41.742 6.2709 41.2327 7.0009 40.2285C7.74871 39.1923 7.78432 38.1026 7.78432 36.899V29.4245ZM10.6545 29.4245H9.88886V37.2765H10.6545V33.2668C10.6545 32.1095 10.5512 29.9693 12.2676 29.9693C12.4706 29.9693 12.6237 30.0192 12.8124 30.1224L13.2219 29.4423C12.9513 29.3248 12.6949 29.2536 12.3887 29.2536C11.5554 29.2536 10.9963 29.7307 10.6901 30.4429L10.6545 29.4245ZM17.1426 29.9693C19.0477 29.9693 20.287 31.3973 20.287 33.2169C20.287 35.1043 19.2008 36.7352 17.1925 36.7352C15.2873 36.7352 14.098 35.1043 14.098 33.3024C14.1015 31.6003 15.3407 29.9693 17.1426 29.9693ZM20.9991 29.4245H20.2335V30.7848C19.5356 29.7984 18.3818 29.2536 17.1746 29.2536C14.8137 29.2536 13.3323 31.0056 13.3323 33.2989C13.3323 35.5921 14.828 37.4474 17.2067 37.4474C18.364 37.4474 19.621 36.8705 20.1979 35.8663L20.2335 37.2765H20.9991V29.4245ZM23.8693 29.4245H23.1037V37.2765H23.8693V33.4021C23.8693 31.8032 24.1934 29.9693 26.1626 29.9693C27.879 29.9693 28.0499 31.1266 28.0499 32.5368V37.28H28.8155V32.5368C28.8155 30.5142 28.2564 29.2571 26.2338 29.2571C25.2154 29.2571 24.3643 29.7842 23.9049 30.6495L23.8693 29.4245ZM34.011 36.7316C32.1059 36.7316 30.9165 35.1007 30.9165 33.2989C30.9165 31.6003 32.1557 29.9693 33.9576 29.9693C35.8627 29.9693 37.1019 31.3973 37.1019 33.2169C37.1055 35.1007 36.0194 36.7316 34.011 36.7316ZM37.0556 37.2765H37.8213V23.2569H37.0556V30.7848C36.3577 29.7984 35.2039 29.2536 33.9968 29.2536C31.6358 29.2536 30.1544 31.0056 30.1544 33.2989C30.1544 35.5921 31.6501 37.4474 34.0288 37.4474C35.1861 37.4474 36.4432 36.8705 37.02 35.8663L37.0556 37.2765ZM46.738 33.4199C46.7558 31.1587 45.3456 29.2571 42.9633 29.2571C40.67 29.2571 39.1566 31.1445 39.1566 33.3345C39.1566 35.5601 40.6344 37.4474 42.9633 37.4474C44.5088 37.4474 45.7694 36.6818 46.4816 35.3215L45.837 34.9476C45.2744 36.0016 44.2916 36.7316 43.0666 36.7316C41.2469 36.7316 39.8724 35.407 39.9222 33.4164H46.738V33.4199ZM39.9222 32.7042C40.0576 31.2264 41.3822 29.9693 42.9811 29.9693C44.5943 29.9693 45.7836 31.262 45.9724 32.7042H39.9222ZM52.0403 30.5142C51.702 29.7842 50.8331 29.2571 50.0354 29.2571C48.8959 29.2571 47.8953 30.0548 47.8953 31.2442C47.8953 32.5688 49.1203 33.0282 50.1886 33.4199C50.9684 33.6906 51.7162 33.9968 51.7162 34.9654C51.7162 35.9518 50.9328 36.7316 49.95 36.7316C48.9137 36.7316 48.2834 36.0693 47.995 35.1328L47.2472 35.3713C47.5712 36.6462 48.6395 37.4438 49.95 37.4438C51.3601 37.4438 52.4818 36.4396 52.4818 34.9974C52.4818 32.1593 48.6573 33.0781 48.6573 31.1907C48.6573 30.5106 49.3375 29.9658 49.9998 29.9658C50.6123 29.9658 51.1215 30.3041 51.3779 30.8489L52.0403 30.5142ZM17.5023 26.9389C15.736 26.9389 14.6321 25.4255 14.6321 23.7518C14.6321 22.1743 15.7823 20.6609 17.456 20.6609C19.2222 20.6609 20.376 21.9856 20.376 23.6735C20.3724 25.4219 19.3647 26.9389 17.5023 26.9389ZM20.3261 27.441H21.0348V14.4256H20.3261V21.4158C19.678 20.5007 18.6062 19.995 17.4845 19.995C15.2909 19.995 13.9199 21.6188 13.9199 23.7518C13.9199 25.8813 15.3087 27.6013 17.5165 27.6013C18.5884 27.6013 19.7564 27.0636 20.2941 26.1341L20.3261 27.441ZM26.0664 19.995C23.9512 19.995 22.2775 21.715 22.2775 23.8124C22.2775 25.8778 23.9655 27.5977 26.0664 27.5977C28.2137 27.5977 29.9016 25.9561 29.9016 23.7946C29.9016 21.6366 28.2137 19.995 26.0664 19.995ZM26.0201 20.6573C27.8184 20.6573 29.193 22.0141 29.193 23.8124C29.193 25.5786 27.8042 26.9354 26.0201 26.9354C24.3002 26.9354 22.9897 25.4682 22.9897 23.8124C22.9897 22.1245 24.2824 20.6573 26.0201 20.6573ZM34.8229 21.163C34.506 20.4829 33.7012 19.995 32.9605 19.995C31.9029 19.995 30.9735 20.7357 30.9735 21.8396C30.9735 23.0717 32.1094 23.4955 33.1029 23.8587C33.8294 24.1115 34.5238 24.3964 34.5238 25.2937C34.5238 26.2089 33.7973 26.9354 32.8822 26.9354C31.9207 26.9354 31.3367 26.3193 31.0661 25.4504L30.3717 25.6712C30.6708 26.8535 31.6643 27.5977 32.8822 27.5977C34.1926 27.5977 35.2324 26.6683 35.2324 25.3258C35.2324 22.6907 31.6821 23.5417 31.6821 21.7897C31.6821 21.1594 32.3124 20.6538 32.9285 20.6538C33.4982 20.6538 33.9683 20.9707 34.2069 21.4728L34.8229 21.163ZM12.7163 11.0996C14.6214 11.0996 15.8606 12.5276 15.8606 14.3473C15.8606 16.2346 14.7745 17.8655 12.7661 17.8655C10.861 17.8655 9.67164 16.2346 9.67164 14.4327C9.67521 12.7341 10.918 11.0996 12.7163 11.0996ZM16.5764 10.5584H15.8108V11.9187C15.1128 10.9323 13.9591 10.391 12.7519 10.391C10.391 10.391 8.90959 12.143 8.90959 14.4363C8.90959 16.7296 10.4052 18.5813 12.7839 18.5813C13.9413 18.5813 15.1983 18.0044 15.7752 17.0002L15.8108 18.4104H16.5764V10.5584ZM29.4529 11.356C28.6695 10.6937 27.7365 10.3875 26.7181 10.3875C24.407 10.3875 22.6728 12.1893 22.6728 14.4648C22.6728 16.7581 24.3714 18.5777 26.7003 18.5777C27.7543 18.5777 28.755 18.186 29.5562 17.4916V16.4554C28.844 17.3207 27.79 17.8655 26.6682 17.8655C24.8165 17.8655 23.4384 16.2524 23.4384 14.4683C23.4384 12.6843 24.8308 11.1032 26.686 11.1032C27.8078 11.1032 28.7087 11.5626 29.4565 12.378V11.356H29.4529ZM34.0715 11.0996C35.9767 11.0996 37.2159 12.5276 37.2159 14.3473C37.2159 16.2346 36.1298 17.8655 34.1214 17.8655C32.2163 17.8655 31.0269 16.2346 31.0269 14.4327C31.0305 12.7341 32.2697 11.0996 34.0715 11.0996ZM37.9316 10.5584H37.166V11.9187C36.4681 10.9323 35.3143 10.391 34.1071 10.391C31.7462 10.391 30.2648 12.143 30.2648 14.4363C30.2648 16.7296 31.7605 18.5813 34.1392 18.5813C35.2965 18.5813 36.5535 18.0044 37.1304 17.0002L37.166 18.4104H37.9316V10.5584ZM43.996 11.6445C43.6577 10.9145 42.7888 10.3875 41.9912 10.3875C40.8517 10.3875 39.851 11.1851 39.851 12.3745C39.851 13.6992 41.076 14.1585 42.1443 14.5502C42.9242 14.8209 43.672 15.1271 43.672 16.0957C43.672 17.0821 42.8885 17.862 41.9057 17.862C40.8695 17.862 40.2392 17.1996 39.9507 16.2631L39.2029 16.5017C39.527 17.7765 40.5953 18.5742 41.9057 18.5742C43.3159 18.5742 44.4376 17.57 44.4376 16.1278C44.4376 13.2897 40.6131 14.2084 40.6131 12.3211C40.6131 11.6409 41.2932 11.0961 41.9556 11.0961C42.5681 11.0961 43.0773 11.4344 43.3337 11.9792L43.996 11.6445ZM48.9387 11.0996C50.8438 11.0996 52.083 12.5276 52.083 14.3473C52.083 16.2346 50.9969 17.8655 48.9885 17.8655C47.0834 17.8655 45.894 16.2346 45.894 14.4327C45.894 12.7341 47.1368 11.0996 48.9387 11.0996ZM52.7952 10.5584H52.0296V11.9187C51.3316 10.9323 50.1779 10.391 48.9707 10.391C46.6098 10.391 45.1284 12.143 45.1284 14.4363C45.1284 16.7296 46.624 18.5813 49.0028 18.5813C50.1601 18.5813 51.4171 18.0044 51.994 17.0002L52.0296 18.4104H52.7952V10.5584Z" fill="white"/>
<path d="M76.4516 0H75.8213V55.5265H76.4516V0Z" fill="white"/>
</svg>
