<svg width="20" height="20" viewBox="0 0 20 20" fill="none" xmlns="http://www.w3.org/2000/svg">
<g clip-path="url(#clip0_134_280)">
<path d="M6.5834 13.4165L2.27949 11.8305C2.16082 11.7867 2.05842 11.7076 1.9861 11.6038C1.91377 11.5 1.875 11.3765 1.875 11.25C1.875 11.1235 1.91377 11.0001 1.9861 10.8963C2.05842 10.7925 2.16082 10.7134 2.27949 10.6696L6.5834 9.08364L8.16933 4.77973C8.21314 4.66106 8.29226 4.55866 8.39605 4.48634C8.49984 4.41402 8.6233 4.37524 8.7498 4.37524C8.8763 4.37524 8.99976 4.41402 9.10355 4.48634C9.20734 4.55866 9.28647 4.66106 9.33027 4.77973L10.9162 9.08364L15.2201 10.6696C15.3388 10.7134 15.4412 10.7925 15.5135 10.8963C15.5858 11.0001 15.6246 11.1235 15.6246 11.25C15.6246 11.3765 15.5858 11.5 15.5135 11.6038C15.4412 11.7076 15.3388 11.7867 15.2201 11.8305L10.9162 13.4165L9.33027 17.7204C9.28647 17.839 9.20734 17.9414 9.10355 18.0138C8.99976 18.0861 8.8763 18.1248 8.7498 18.1248C8.6233 18.1248 8.49984 18.0861 8.39605 18.0138C8.29226 17.9414 8.21314 17.839 8.16933 17.7204L6.5834 13.4165Z" stroke="#C00018" stroke-width="1.5" stroke-linecap="round" stroke-linejoin="round"/>
<path d="M13.75 1.25V5" stroke="#C00018" stroke-width="1.5" stroke-linecap="round" stroke-linejoin="round"/>
<path d="M17.5 5.625V8.125" stroke="#C00018" stroke-width="1.5" stroke-linecap="round" stroke-linejoin="round"/>
<path d="M11.875 3.125H15.625" stroke="#C00018" stroke-width="1.5" stroke-linecap="round" stroke-linejoin="round"/>
<path d="M16.25 6.875H18.75" stroke="#C00018" stroke-width="1.5" stroke-linecap="round" stroke-linejoin="round"/>
</g>
<defs>
<clipPath id="clip0_134_280">
<rect width="20" height="20" fill="white"/>
</clipPath>
</defs>
</svg>
