<svg xmlns="http://www.w3.org/2000/svg" xmlns:xlink="http://www.w3.org/1999/xlink" width="171.819" height="149.094" viewBox="0 0 171.819 149.094">
    <defs>
      <clipPath id="clip-path">
        <path id="Caminho_36" data-name="Caminho 36" d="M26.72,15.043a13.36,13.36,0,0,1-2.395-.242,8.246,8.246,0,0,1-1.785-.533l.687-3.187.08.037A7.753,7.753,0,0,0,26.941,12h.154a3.985,3.985,0,0,0,.806-.092,2.743,2.743,0,0,0,.721-.26,1.513,1.513,0,0,0,.519-.439,1.091,1.091,0,0,0,.2-.633c.008-.636-.485-1.1-1.95-1.81a8.4,8.4,0,0,1-2.2-1.455,4.426,4.426,0,0,1-.448-.514,3.56,3.56,0,0,1-.353-.585,3.144,3.144,0,0,1-.228-.662,3.256,3.256,0,0,1-.087-.747,4.209,4.209,0,0,1,.481-1.946,4.564,4.564,0,0,1,1.314-1.517,6.287,6.287,0,0,1,2.007-.99A8.97,8.97,0,0,1,30.445,0a9.621,9.621,0,0,1,1.034.055c.309.033.622.082.93.146a11.374,11.374,0,0,1,1.557.445l-.659,3.084a7.54,7.54,0,0,0-1.726-.556,7.052,7.052,0,0,0-1.348-.137,4.985,4.985,0,0,0-.64.037,2.939,2.939,0,0,0-.707.18,1.813,1.813,0,0,0-.5.29A1.185,1.185,0,0,0,28.1,3.9a.905.905,0,0,0-.1.391,1.123,1.123,0,0,0,.541.894,9.282,9.282,0,0,0,1.318.779,9.931,9.931,0,0,1,2.286,1.488,3.429,3.429,0,0,1,1.133,2.609,4.6,4.6,0,0,1-.474,2.06A4.505,4.505,0,0,1,31.473,13.7a6.271,6.271,0,0,1-2.06,1A9.751,9.751,0,0,1,26.72,15.043Zm19.86-.227H43.095l-.454-2.172H37.813l-.787,2.172H33.074L38.72,1.336A1.709,1.709,0,0,1,40.325.266h3.21L46.58,14.821ZM40.879,4.2,38.9,9.66h3.118ZM19.948,14.817H16.183L19.3.262h3.768L19.955,14.817Zm-8.363,0H7.607L4.605,3.2a2.473,2.473,0,0,0-.308-.8,1.53,1.53,0,0,0-.59-.487,10.422,10.422,0,0,0-1.7-.687C1.381,1.027.687.84,0,.687L.088.266h6.4a1.794,1.794,0,0,1,.589.1,1.7,1.7,0,0,1,.515.29,1.856,1.856,0,0,1,.63,1.1l1.587,8.414,3.919-9.9h3.953l-6.1,14.555Z" transform="translate(0 0)"></path>
      </clipPath>
      <clipPath id="clip-path-2">
        <path id="vectorMask" d="M2237.742,1561.458v32.5H2270.7v-10.727a1.226,1.226,0,0,0,.2-.716,1.1,1.1,0,0,0-.2-.711v-20.344Z" transform="translate(-2237.742 -1561.458)" fill="none" stroke="#000" stroke-width="1.5"></path>
      </clipPath>
    </defs>
    <g id="Grupo_1991" data-name="Grupo 1991" transform="translate(-522 -145.65)">
      <g id="Grupo_1961" data-name="Grupo 1961" transform="translate(597.734 255.843)">
        <path id="Caminho_1998" data-name="Caminho 1998" d="M18.088,2,2.355,16.08l2.97,2.87L21.381,5.3Z" transform="translate(-2.355 -1)" fill="#fff" stroke="#000" stroke-linejoin="round" stroke-width="1"></path>
      </g>
      <g id="Grupo_1990" data-name="Grupo 1990">
        <g id="Grupo_62" data-name="Grupo 62" transform="translate(522 154.581)">
          <g id="Grupo_61" data-name="Grupo 61" transform="translate(0 0)" clip-path="url(#clip-path)">
            <g id="Grupo_60" data-name="Grupo 60" transform="translate(-0.01 -0.149)">
              <rect id="Retângulo_97" data-name="Retângulo 97" width="46.696" height="15.201"></rect>
            </g>
          </g>
        </g>
        <g id="_3" data-name="3" transform="translate(653.158 152)">
          <path id="Caminho_86" data-name="Caminho 86" d="M1498.735,1805.049a4.787,4.787,0,0,1-5.93.633l-1.791,2.855a8.168,8.168,0,0,0,10.073-1.073Z" transform="translate(-1487.182 -1789.735)"></path>
          <path id="Caminho_87" data-name="Caminho 87" d="M1.327,12.653A8.179,8.179,0,0,1,8.179,0h.128a8.187,8.187,0,0,1,7.844,6.316ZM8.182,3.368A4.821,4.821,0,0,0,3.365,8.114a4.189,4.189,0,0,0,.028.581l8.468-3.617a4.887,4.887,0,0,0-.725-.7,4.829,4.829,0,0,0-.858-.535A4.762,4.762,0,0,0,8.26,3.37Z" transform="translate(0.004 3.686)"></path>
          <path id="Caminho_88" data-name="Caminho 88" d="M1693.513,1584.514v15.8l2.742,1.138-1.3,3.118-2.712-1.129a3.073,3.073,0,0,1-1.338-1.122,3.535,3.535,0,0,1-.525-1.961v-15.846Z" transform="translate(-1672.709 -1584.514)"></path>
          <path id="Caminho_89" data-name="Caminho 89" d="M1863.49,1641.218a4.82,4.82,0,0,1,6.246,3.608l3.3-.674a8.2,8.2,0,0,0-10.616-6.127Z" transform="translate(-1832.801 -1633.918)"></path>
          <path id="Caminho_90" data-name="Caminho 90" d="M1784.649,1679.465l2.234-2.522a4.815,4.815,0,0,1,0-7.213l-2.233-2.526a8.185,8.185,0,0,0,0,12.254" transform="translate(-1757.855 -1661.464)"></path>
          <path id="Caminho_91" data-name="Caminho 91" d="M1869.677,1769.407a4.82,4.82,0,0,1-6.248,3.6l-1.07,3.2a8.192,8.192,0,0,0,10.621-6.127Z" transform="translate(-1832.741 -1756.567)"></path>
        </g>
        <g id="Grupo_321" data-name="Grupo 321" transform="translate(523.226 210.837)">
          <rect id="Retângulo_1216" data-name="Retângulo 1216" width="2.159" height="8.935" transform="translate(3.12 0)"></rect>
          <rect id="Retângulo_1217" data-name="Retângulo 1217" width="0.667" height="8.935" transform="translate(5.962 0)"></rect>
          <rect id="Retângulo_1218" data-name="Retângulo 1218" width="1.199" height="8.935" transform="translate(7.212 0)"></rect>
          <rect id="Retângulo_1219" data-name="Retângulo 1219" width="0.671" height="8.935" transform="translate(9.566 0)"></rect>
          <rect id="Retângulo_1220" data-name="Retângulo 1220" width="0.516" height="8.935" transform="translate(10.527 0)"></rect>
          <rect id="Retângulo_1221" data-name="Retângulo 1221" width="0.669" height="20.227" transform="translate(1.476 0)"></rect>
          <rect id="Retângulo_1222" data-name="Retângulo 1222" width="1.198" height="20.227" transform="translate(0 0)"></rect>
          <rect id="Retângulo_1223" data-name="Retângulo 1223" width="2.163" height="8.935" transform="translate(14.619 0)"></rect>
          <rect id="Retângulo_1224" data-name="Retângulo 1224" width="0.671" height="8.935" transform="translate(17.461 0)"></rect>
          <rect id="Retângulo_1225" data-name="Retângulo 1225" width="1.199" height="8.935" transform="translate(18.715 0)"></rect>
          <rect id="Retângulo_1226" data-name="Retângulo 1226" width="0.667" height="8.935" transform="translate(21.069 0)"></rect>
          <rect id="Retângulo_1227" data-name="Retângulo 1227" width="0.516" height="8.935" transform="translate(22.03 0)"></rect>
          <rect id="Retângulo_1228" data-name="Retângulo 1228" width="0.667" height="8.935" transform="translate(12.98 0)"></rect>
          <rect id="Retângulo_1229" data-name="Retângulo 1229" width="1.199" height="8.935" transform="translate(11.503 0)"></rect>
          <rect id="Retângulo_1230" data-name="Retângulo 1230" width="1.195" height="8.935" transform="translate(23.395 0)"></rect>
          <rect id="Retângulo_1231" data-name="Retângulo 1231" width="0.671" height="8.935" transform="translate(25.745 0)"></rect>
          <rect id="Retângulo_1232" data-name="Retângulo 1232" width="0.512" height="8.935" transform="translate(26.709 0)"></rect>
          <rect id="Retângulo_1233" data-name="Retângulo 1233" width="0.671" height="8.935" transform="translate(29.158 0)"></rect>
          <rect id="Retângulo_1234" data-name="Retângulo 1234" width="1.199" height="8.935" transform="translate(27.682 0)"></rect>
          <rect id="Retângulo_1235" data-name="Retângulo 1235" width="0.671" height="8.935" transform="translate(30.718 0)"></rect>
          <rect id="Retângulo_1236" data-name="Retângulo 1236" width="0.516" height="8.935" transform="translate(31.679 0)"></rect>
          <rect id="Retângulo_1237" data-name="Retângulo 1237" width="0.671" height="8.935" transform="translate(34.128 0)"></rect>
          <rect id="Retângulo_1238" data-name="Retângulo 1238" width="1.199" height="8.935" transform="translate(32.651 0)"></rect>
          <rect id="Retângulo_1239" data-name="Retângulo 1239" width="2.159" height="8.935" transform="translate(35.382 0)"></rect>
          <rect id="Retângulo_1240" data-name="Retângulo 1240" width="0.667" height="8.935" transform="translate(38.224 0)"></rect>
          <rect id="Retângulo_1241" data-name="Retângulo 1241" width="1.199" height="8.935" transform="translate(39.475 0)"></rect>
          <rect id="Retângulo_1242" data-name="Retângulo 1242" width="0.671" height="8.935" transform="translate(41.828 0)"></rect>
          <rect id="Retângulo_1243" data-name="Retângulo 1243" width="0.516" height="8.935" transform="translate(42.789 0)"></rect>
          <rect id="Retângulo_1244" data-name="Retângulo 1244" width="1.198" height="20.227" transform="translate(44.155 0)"></rect>
          <path id="Caminho_1532" data-name="Caminho 1532" d="M276.376,69.155a2.558,2.558,0,0,0-.234-.263,2.645,2.645,0,0,0-.672-.463,2.836,2.836,0,0,0-.523-.2,2.812,2.812,0,0,0,.523-.332,2.315,2.315,0,0,0,.552-.609c.043-.072.083-.143.12-.22a2.308,2.308,0,0,0,.234-1.015,2.436,2.436,0,0,0-.234-1.044,3.249,3.249,0,0,0-.166-.309,2.433,2.433,0,0,0-.506-.583,2.3,2.3,0,0,0-.606-.377,3.257,3.257,0,0,0-.549-.18,5.8,5.8,0,0,0-1.2-.129h-3.989V73.685h3.989a7.409,7.409,0,0,0,1.2-.094,3.674,3.674,0,0,0,.386-.08,3.255,3.255,0,0,0,.769-.289,2.106,2.106,0,0,0,.349-.214,2.848,2.848,0,0,0,.323-.3,2.8,2.8,0,0,0,.289-.4,2.863,2.863,0,0,0,.143-.26,2.98,2.98,0,0,0,.306-1.341,2.455,2.455,0,0,0-.449-1.473A.962.962,0,0,0,276.376,69.155Zm-5.888-4.524h2.053c.209,0,.4,0,.575.011a4.15,4.15,0,0,1,.984.132,1.024,1.024,0,0,1,.214.089,1.215,1.215,0,0,1,.486.446,1.652,1.652,0,0,1,.246.9,1.488,1.488,0,0,1-.263.9,1.261,1.261,0,0,1-.469.389,1.811,1.811,0,0,1-.312.123,3.592,3.592,0,0,1-.886.112c-.126.006-.263.009-.409.009h-2.219Zm4.981,6.16a1.747,1.747,0,0,1-.2.786,1.458,1.458,0,0,1-.52.575,1.746,1.746,0,0,1-.437.192,2.727,2.727,0,0,1-.343.089,5.97,5.97,0,0,1-.855.051h-2.628v-3.54h2.374c.089,0,.172,0,.255,0a4.661,4.661,0,0,1,1.2.152l.049.014a1.541,1.541,0,0,1,.815.6,1.649,1.649,0,0,1,.292.858Z" transform="translate(-265.904 -53.847)"></path>
          <path id="Caminho_1533" data-name="Caminho 1533" d="M278.259,65.365a.626.626,0,0,0-.063-.06,2.767,2.767,0,0,0-.672-.506,3.227,3.227,0,0,0-.678-.292,3.938,3.938,0,0,0-1.092-.146,3.825,3.825,0,0,0-1.072.146,3.148,3.148,0,0,0-.972.455,2.376,2.376,0,0,0-.294.226,2.813,2.813,0,0,0-.372.389,2.754,2.754,0,0,0-.277.415,5.28,5.28,0,0,0,0,4.475,2.249,2.249,0,0,0,.277.423,2.377,2.377,0,0,0,.192.223,2.905,2.905,0,0,0,.475.406,3.093,3.093,0,0,0,.972.455,3.991,3.991,0,0,0,1.072.134,3.818,3.818,0,0,0,1.092-.154,3.512,3.512,0,0,0,.678-.286l.023-.011a3.091,3.091,0,0,0,.649-.469,2.863,2.863,0,0,0,.583-.766l.023-.037a4.915,4.915,0,0,0,.429-2.251,4.223,4.223,0,0,0-.452-2.042A2.906,2.906,0,0,0,278.259,65.365Zm-.735,4.713a1.5,1.5,0,0,1-.206.289,2.1,2.1,0,0,1-.472.409,2.068,2.068,0,0,1-2.665-.406,2.29,2.29,0,0,1-.472-.9V67.012a2.271,2.271,0,0,1,.472-.9,1.967,1.967,0,0,1,.5-.42,2.019,2.019,0,0,1,1.072-.286,1.967,1.967,0,0,1,1.092.309,2.116,2.116,0,0,1,.469.4,1.961,1.961,0,0,1,.209.295,3.391,3.391,0,0,1,.418,1.79A3.581,3.581,0,0,1,277.524,70.077Z" transform="translate(-260.063 -52.115)"></path>
          <path id="Caminho_1534" data-name="Caminho 1534" d="M275.662,63.43h-.452V73.686h1.262V63.43h-.81Z" transform="translate(-254.593 -53.848)"></path>
          <path id="Caminho_1535" data-name="Caminho 1535" d="M282.076,65.373c-.049-.051-.1-.1-.143-.14a2.109,2.109,0,0,0-.277-.237,2.953,2.953,0,0,0-1.2-.549,3.3,3.3,0,0,0-.46-.072,3.38,3.38,0,0,0-.343-.014c-.057,0-.112,0-.169,0-.1.006-.2.011-.292.02a3.836,3.836,0,0,0-.672.143,3.077,3.077,0,0,0-1.155.655,3,3,0,0,0-.215.212,4.1,4.1,0,0,0-.961,2.905,3.919,3.919,0,0,0,.952,2.811,2.46,2.46,0,0,0,.223.206,3.04,3.04,0,0,0,1.155.632,3.493,3.493,0,0,0,.672.129,2.348,2.348,0,0,0,.292.026c.077.006.154.006.234.006s.186,0,.277-.006a3.848,3.848,0,0,0,.46-.051,3.113,3.113,0,0,0,1.2-.44,1.955,1.955,0,0,0,.186-.129c.031-.023.06-.049.091-.074a2.781,2.781,0,0,0,.669-.786,3.532,3.532,0,0,0,.375-.9l-.375-.051-.669-.089-.26-.034-.017.051a2.4,2.4,0,0,1-.761,1.118,1.6,1.6,0,0,1-.44.237,1.838,1.838,0,0,1-.46.112,1.784,1.784,0,0,1-.277.017,2.115,2.115,0,0,1-.234-.011,1.884,1.884,0,0,1-.292-.049,1.914,1.914,0,0,1-.672-.295,1.888,1.888,0,0,1-.349-.3,2.841,2.841,0,0,1-.695-1.873h5.536c.006-.146.008-.257.008-.332a4.592,4.592,0,0,0-.417-2.065A2.915,2.915,0,0,0,282.076,65.373Zm-.42,2.156h-4.109a2.319,2.319,0,0,1,.655-1.558,2.457,2.457,0,0,1,.317-.257,1.929,1.929,0,0,1,.672-.274,1.891,1.891,0,0,1,.292-.037,1.687,1.687,0,0,1,.171-.009,1.841,1.841,0,0,1,.34.029,1.545,1.545,0,0,1,.46.126,1.92,1.92,0,0,1,.758.572,2.265,2.265,0,0,1,.443,1.135Z" transform="translate(-252.774 -52.115)"></path>
          <path id="Caminho_1536" data-name="Caminho 1536" d="M281.917,72.454a.952.952,0,0,1-.149.009l-.132,0a.746.746,0,0,1-.3-.089.543.543,0,0,1-.215-.246,2.163,2.163,0,0,1-.066-.695V67.078h1.261V66.1H281.06V63.509l-.621.372-.455.275-.183.112V66.1h-.932v.975h.932v4.281a4.589,4.589,0,0,0,.149,1.493l.034.06a1.126,1.126,0,0,0,.455.48l.043.029a2.127,2.127,0,0,0,1.061.217c.031,0,.063,0,.094,0,.089,0,.183-.009.28-.017.177-.02.372-.051.575-.091l-.172-1.115A3.483,3.483,0,0,1,281.917,72.454Z" transform="translate(-247.788 -53.7)"></path>
          <path id="Caminho_1537" data-name="Caminho 1537" d="M286.336,65.365a3.1,3.1,0,0,0-.621-.5,3.146,3.146,0,0,0-1.2-.443,2.965,2.965,0,0,0-.583-.057c-.031,0-.066,0-.1,0a3.633,3.633,0,0,0-.563.04,3.4,3.4,0,0,0-.683.157,3.232,3.232,0,0,0-1.089.629,3.307,3.307,0,0,0-1.07,2.042,6.155,6.155,0,0,0-.08,1.007,6.028,6.028,0,0,0,.08.992,3.486,3.486,0,0,0,.881,1.884,3.058,3.058,0,0,0,1.278.8,2.978,2.978,0,0,0,.683.157,4.021,4.021,0,0,0,.563.037c.037,0,.069,0,.1,0a3.556,3.556,0,0,0,1.693-.449.454.454,0,0,0,.089-.054,2.989,2.989,0,0,0,1.155-1.207l.008-.011a4.914,4.914,0,0,0,.429-2.251,4.255,4.255,0,0,0-.437-2.013A2.872,2.872,0,0,0,286.336,65.365Zm-.621,4.492a1.946,1.946,0,0,1-.32.509,2.01,2.01,0,0,1-.878.6,2.046,2.046,0,0,1-.583.109c-.031,0-.066,0-.1,0a2.143,2.143,0,0,1-.563-.071,1.89,1.89,0,0,1-.683-.337,2.139,2.139,0,0,1-.326-.3,3.962,3.962,0,0,1,0-4.258,2.27,2.27,0,0,1,.326-.3,1.838,1.838,0,0,1,.683-.335,2.143,2.143,0,0,1,.563-.071c.037,0,.072,0,.1,0a2.056,2.056,0,0,1,1.781,1.212,3.62,3.62,0,0,1,.3,1.579A3.914,3.914,0,0,1,285.715,69.857Z" transform="translate(-245.043 -52.115)"></path>
        </g>
        <g id="noun_fast_payment_2029714" data-name="noun_fast payment_2029714" transform="translate(521.464 250.143)">
          <g id="Grupo_1956" data-name="Grupo 1956" transform="translate(1 6.7)">
            <g id="Grupo_1936" data-name="Grupo 1936" transform="translate(9.727 6.989)">
              <path id="Caminho_1980" data-name="Caminho 1980" d="M48.51,40.322H16.878A2.4,2.4,0,0,1,14.5,37.944V34.053a.721.721,0,1,1,1.441,0v3.891a.954.954,0,0,0,.937.937H48.51a.954.954,0,0,0,.937-.937V18.778a.954.954,0,0,0-.937-.937H16.878a.954.954,0,0,0-.937.937v4.4a.721.721,0,1,1-1.441,0v-4.4A2.4,2.4,0,0,1,16.878,16.4H48.51a2.4,2.4,0,0,1,2.378,2.378V38.017A2.385,2.385,0,0,1,48.51,40.322Z" transform="translate(-14.5 -16.4)"></path>
            </g>
            <g id="Grupo_1937" data-name="Grupo 1937" transform="translate(12.536 10.232)">
              <path id="Caminho_1982" data-name="Caminho 1982" d="M48.21,24.719a3.075,3.075,0,0,1-3.1-3.1.722.722,0,0,0-.721-.721H23.639a.722.722,0,0,0-.721.721,3.075,3.075,0,0,1-3.1,3.1.775.775,0,0,0-.721.721v8.286a.722.722,0,0,0,.721.721,3.075,3.075,0,0,1,3.1,3.1.681.681,0,0,0,.721.721H44.391a.681.681,0,0,0,.721-.721,3.075,3.075,0,0,1,3.1-3.1.722.722,0,0,0,.721-.721V25.439A.775.775,0,0,0,48.21,24.719Z" transform="translate(-19.1 -20.9)"></path>
            </g>
            <g id="Grupo_1944" data-name="Grupo 1944" transform="translate(12.232 33.506)">
              <g id="Grupo_1940" data-name="Grupo 1940" transform="translate(10.592)">
                <g id="Grupo_1938" data-name="Grupo 1938" transform="translate(3.315)">
                  <path id="Caminho_1983" data-name="Caminho 1983" d="M40.841,54.641h-5.62a.721.721,0,1,1,0-1.441h5.62a.681.681,0,0,1,.721.721A.722.722,0,0,1,40.841,54.641Z" transform="translate(-34.5 -53.2)"></path>
                </g>
                <g id="Grupo_1939" data-name="Grupo 1939" transform="translate(0 0.011)">
                  <path id="Caminho_1984" data-name="Caminho 1984" d="M29.9,53.925a.654.654,0,0,1,.216-.5.721.721,0,1,1-.216.5Z" transform="translate(-29.9 -53.215)"></path>
                </g>
              </g>
              <g id="Grupo_1943" data-name="Grupo 1943" transform="translate(0 2.954)">
                <g id="Grupo_1941" data-name="Grupo 1941" transform="translate(3.242)">
                  <path id="Caminho_1985" data-name="Caminho 1985" d="M26.041,58.741h-5.62a.721.721,0,0,1,0-1.441h5.62a.721.721,0,1,1,0,1.441Z" transform="translate(-19.7 -57.3)"></path>
                </g>
                <g id="Grupo_1942" data-name="Grupo 1942" transform="translate(0 0.011)">
                  <path id="Caminho_1986" data-name="Caminho 1986" d="M15.921,58.745a.681.681,0,0,1-.721-.721.654.654,0,0,1,.216-.5.721.721,0,0,1,1.225.5A.775.775,0,0,1,15.921,58.745Z" transform="translate(-15.2 -57.315)"></path>
                </g>
              </g>
            </g>
            <g id="Grupo_1951" data-name="Grupo 1951" transform="translate(14.771)">
              <g id="Grupo_1947" data-name="Grupo 1947">
                <g id="Grupo_1945" data-name="Grupo 1945" transform="translate(3.242)">
                  <path id="Caminho_1987" data-name="Caminho 1987" d="M32.341,8.141h-5.62A.681.681,0,0,1,26,7.421a.681.681,0,0,1,.721-.721h5.62a.681.681,0,0,1,.721.721A.722.722,0,0,1,32.341,8.141Z" transform="translate(-26 -6.7)"></path>
                </g>
                <g id="Grupo_1946" data-name="Grupo 1946" transform="translate(0 0.09)">
                  <path id="Caminho_1988" data-name="Caminho 1988" d="M21.716,8.032a.654.654,0,0,1-.216-.5.721.721,0,0,1,1.441,0,.654.654,0,0,1-.216.5A.766.766,0,0,1,21.716,8.032Z" transform="translate(-21.5 -6.825)"></path>
                </g>
              </g>
              <g id="Grupo_1950" data-name="Grupo 1950" transform="translate(10.952 2.954)">
                <g id="Grupo_1948" data-name="Grupo 1948" transform="translate(3.315)">
                  <path id="Caminho_1989" data-name="Caminho 1989" d="M47.641,12.241h-5.62a.721.721,0,0,1,0-1.441h5.62a.681.681,0,0,1,.721.721A.722.722,0,0,1,47.641,12.241Z" transform="translate(-41.3 -10.8)"></path>
                </g>
                <g id="Grupo_1949" data-name="Grupo 1949" transform="translate(0 0)">
                  <path id="Caminho_1990" data-name="Caminho 1990" d="M36.916,12.025a.713.713,0,1,1,1.009,0A.7.7,0,0,1,36.916,12.025Z" transform="translate(-36.7 -10.8)"></path>
                </g>
              </g>
            </g>
            <g id="Grupo_1952" data-name="Grupo 1952" transform="translate(0 15.132)">
              <path id="Caminho_1991" data-name="Caminho 1991" d="M8.926,29.141H1.721a.721.721,0,1,1,0-1.441H8.926a.721.721,0,0,1,0,1.441Z" transform="translate(-1 -27.7)"></path>
            </g>
            <g id="Grupo_1954" data-name="Grupo 1954" transform="translate(4.828 18.23)">
              <g id="Grupo_1953" data-name="Grupo 1953">
                <path id="Caminho_1992" data-name="Caminho 1992" d="M13.9,33.441H8.421a.721.721,0,1,1,0-1.441H13.9a.721.721,0,1,1,0,1.441Z" transform="translate(-7.7 -32)"></path>
              </g>
            </g>
            <g id="Grupo_1955" data-name="Grupo 1955" transform="translate(0 21.328)">
              <path id="Caminho_1993" data-name="Caminho 1993" d="M8.926,37.741H1.721a.721.721,0,1,1,0-1.441H8.926a.721.721,0,1,1,0,1.441Z" transform="translate(-1 -36.3)"></path>
            </g>
          </g>
        </g>
        <g id="Grupo_1974" data-name="Grupo 1974" transform="matrix(0.766, -0.643, 0.643, 0.766, 599.797, 274.048)">
          <path id="Caminho_1980-2" data-name="Caminho 1980" d="M25.914,17.326H1.812A1.784,1.784,0,0,1,0,15.6V12.786a.506.506,0,0,1,.549-.522.506.506,0,0,1,.549.522V15.6a.709.709,0,0,0,.714.678h24.1a.709.709,0,0,0,.714-.678V1.722a.709.709,0,0,0-.714-.678H1.812a.709.709,0,0,0-.714.678v12.6a.506.506,0,0,1-.549.522A.506.506,0,0,1,0,14.321V1.722A1.784,1.784,0,0,1,1.812,0h24.1a1.784,1.784,0,0,1,1.812,1.722V15.656A1.777,1.777,0,0,1,25.914,17.326Z" transform="translate(0 0)"></path>
        </g>
        <g id="Grupo_1975" data-name="Grupo 1975" transform="matrix(0.766, -0.643, 0.643, 0.766, 602.998, 273.934)">
          <path id="Caminho_1982-2" data-name="Caminho 1982" d="M22.181,2.91A2.343,2.343,0,0,1,19.82.549.55.55,0,0,0,19.271,0H3.459A.55.55,0,0,0,2.91.549,2.343,2.343,0,0,1,.549,2.91.59.59,0,0,0,0,3.459V9.773a.55.55,0,0,0,.549.549A2.343,2.343,0,0,1,2.91,12.683a.519.519,0,0,0,.549.549H19.271a.519.519,0,0,0,.549-.549,2.343,2.343,0,0,1,2.361-2.361.55.55,0,0,0,.549-.549V3.459A.59.59,0,0,0,22.181,2.91Z" transform="translate(0 0)"></path>
        </g>
        <g id="Grupo_1957" data-name="Grupo 1957" transform="translate(597.734 271.269)">
          <path id="Caminho_1994" data-name="Caminho 1994" d="M14.649,51.43,2.185,59.978V41.38Z" transform="translate(-2.185 -41.38)" fill="#fff" stroke="#000" stroke-linejoin="round" stroke-width="1"></path>
        </g>
        <g id="Grupo_1958" data-name="Grupo 1958" transform="translate(598.085 278.455)">
          <path id="Caminho_1995" data-name="Caminho 1995" d="M19.085,62.76,34.979,74.525H3.195Z" transform="translate(-3.195 -62.76)" fill="#fff" stroke="#000" stroke-linejoin="round" stroke-width="1"></path>
        </g>
        <g id="Grupo_1960" data-name="Grupo 1960" transform="translate(618.119 270.785)">
          <path id="Caminho_1997" data-name="Caminho 1997" d="M74.435,41.38V60.814l-12.1-8.929Z" transform="translate(-62.335 -41.38)" fill="#fff" stroke="#000" stroke-linejoin="round" stroke-width="1"></path>
        </g>
        <g id="Grupo_318" data-name="Grupo 318" transform="translate(591.418 198.708)">
          <path id="Exclusão_1" data-name="Exclusão 1" d="M10.947,14.733H7.378A7.379,7.379,0,0,1,0,7.43a7.3,7.3,0,0,1,2.125-5.3A7.217,7.217,0,0,1,7.263,0l.165,0h3.463l.179,0a7.483,7.483,0,0,1,5.222,2.109,7.571,7.571,0,0,1,2.3,5.322,7.652,7.652,0,0,1-7.643,7.3ZM7.441.607A6.75,6.75,0,0,0,3.674,12.951,6.682,6.682,0,0,0,7.422,14.1h.042a6.656,6.656,0,0,0,2.611-.531A6.748,6.748,0,0,0,7.441.607ZM5.912,11.343h0a4.274,4.274,0,0,1,0-7.975v7.974Zm3.059,0h0V3.367a4.269,4.269,0,0,1,0,7.975Z" transform="translate(13.402 3.265)"></path>
          <path id="Caminho_51" data-name="Caminho 51" d="M2.193,5.491H1.057c-.381,0-.747,0-1.054.013V5.287H.026A1.15,1.15,0,0,0,.535,5.17c.119-.08.175-.217.188-.478V.866A1.083,1.083,0,0,0,.667.489.4.4,0,0,0,.52.29.812.812,0,0,0,.067.217H0V0C.307.015.624.015.927.015L1.42,0h.866A3.765,3.765,0,0,1,3.637.234a2.9,2.9,0,0,1,.985.621,2.646,2.646,0,0,1,.608.877A2.618,2.618,0,0,1,5.436,2.75,2.784,2.784,0,0,1,4.86,4.408a2.585,2.585,0,0,1-.983.758,4.092,4.092,0,0,1-1.684.325ZM2.107.253c-.245,0-.392.013-.509.022l-.1.009v4.28c0,.6.414.675.816.675a2.483,2.483,0,0,0,1.072-.217,1.868,1.868,0,0,0,.7-.569,2.334,2.334,0,0,0,.377-.788,3.3,3.3,0,0,0,.113-.877A2.949,2.949,0,0,0,4.4,1.771a2.308,2.308,0,0,0-.491-.8A2.2,2.2,0,0,0,3.133.433,2.719,2.719,0,0,0,2.107.253Z" transform="translate(4.226 18.604)"></path>
          <path id="Caminho_52" data-name="Caminho 52" d="M2928.29,1778.491v-.206h-.135c-.217,0-.393,0-.393-.26v-3.031l-.056-.11-.14.039c-.035.024-.474.176-.844.286v.128c.292.156.409.2.409.552v2.13c0,.26-.158.26-.377.26h-.152v.206c.292,0,.574-.015.866-.015s.561.015.827.015" transform="translate(-2916.666 -1754.396)"></path>
          <path id="Caminho_53" data-name="Caminho 53" d="M2932.021,1753.838a.394.394,0,0,0,.385-.394.383.383,0,0,0-.385-.375.4.4,0,0,0-.385.375.4.4,0,0,0,.385.394" transform="translate(-2921.242 -1734.551)"></path>
          <path id="Caminho_54" data-name="Caminho 54" d="M2951.608,1778.282h-.143c-.216,0-.394,0-.394-.257v-2.033c0-.615-.234-1.1-.9-1.1a2.3,2.3,0,0,0-1.361.593v-.513l-.048-.08a9.57,9.57,0,0,1-1.037.376v.151c.37.149.455.23.455.52v2.087c0,.258-.156.258-.375.258h-.143v.205c.284,0,.565-.015.849-.015s.561.015.835.015v-.205h-.143c-.216,0-.391,0-.391-.258V1775.7a2.081,2.081,0,0,1,.911-.379c.451,0,.725.217.725.672v2.037c0,.258-.158.258-.378.258h-.143v.205c.281,0,.565-.015.852-.015s.557.015.832.015Z" transform="translate(-2935.808 -1754.392)"></path>
          <path id="Caminho_55" data-name="Caminho 55" d="M1.5,3.713a1.448,1.448,0,0,1-.762-.2,1.362,1.362,0,0,1-.459-.47A2.148,2.148,0,0,1,0,2a2.553,2.553,0,0,1,.171-.966A1.732,1.732,0,0,1,.589.422,1.6,1.6,0,0,1,1.111.1,1.388,1.388,0,0,1,1.591,0a1.446,1.446,0,0,1,.9.305,1.173,1.173,0,0,1,.433.931v.143l-.084.048H.63a1.962,1.962,0,0,0,0,.457,1.674,1.674,0,0,0,.359.961,1.033,1.033,0,0,0,.8.4,1.535,1.535,0,0,0,1.063-.528l.108.108a2.724,2.724,0,0,1-.621.624,1.438,1.438,0,0,1-.831.262ZM1.559.251C1.083.251.749.6.65,1.173H2.022c.193,0,.217-.1.217-.2A.769.769,0,0,0,2.066.463.649.649,0,0,0,1.559.251Z" transform="translate(15.768 20.498)"></path>
          <path id="Caminho_56" data-name="Caminho 56" d="M3026.979,1778.483v-.2h-.433c-.217,0-.375,0-.375-.26v-1.849a.663.663,0,0,1,.573-.649c.275,0,.275.188.518.188a.388.388,0,0,0,.269-.125.384.384,0,0,0,.1-.279.433.433,0,0,0-.449-.415c-.476,0-.81.5-1.007.81h-.016v-.706l-.07-.1c-.071,0-.387.216-.961.45v.115c.116.066.409.111.409.355v2.21c0,.26-.158.26-.38.26h-.217v.2c.289,0,.615-.013.94-.013s.667,0,1.1.013" transform="translate(-3006.073 -1754.389)"></path>
          <path id="Caminho_57" data-name="Caminho 57" d="M3057.893,1778.36a1.037,1.037,0,0,1-.992-.959l-.143.036.085.907a2.064,2.064,0,0,0,.963.269c.936,0,1.354-.552,1.354-1.072,0-1.234-1.828-.951-1.828-1.873a.558.558,0,0,1,.615-.521.809.809,0,0,1,.865.781H3059l-.054-.8a2.03,2.03,0,0,0-.9-.23,1.083,1.083,0,0,0-1.219,1.009c0,1.266,1.713.968,1.713,1.894a.556.556,0,0,1-.637.561" transform="translate(-3035.004 -1754.396)"></path>
          <path id="Caminho_58" data-name="Caminho 58" d="M3112.043,1758.018l.182-1.148-.182-.047a1.6,1.6,0,0,1-1.583,1.364,2.564,2.564,0,0,1-2.342-2.732,2.243,2.243,0,0,1,2.218-2.494,1.5,1.5,0,0,1,1.684,1.3h.2l-.078-1.126a5.616,5.616,0,0,0-1.857-.418,2.891,2.891,0,0,0-2.978,2.769,2.8,2.8,0,0,0,3.005,2.957,4.411,4.411,0,0,0,1.732-.416" transform="translate(-3080.959 -1734.222)"></path>
          <path id="Caminho_59" data-name="Caminho 59" d="M3166.243,1754.291v-.2h-.133c-.217,0-.39,0-.39-.26v-5.436l-.065-.11-.177.086a4.835,4.835,0,0,1-.809.341v.125c.3.084.42.1.42.613v4.382c0,.26-.161.26-.381.26h-.152v.2c.294,0,.576-.01.865-.01s.561.01.827.01" transform="translate(-3133.02 -1730.196)"></path>
          <path id="Caminho_60" data-name="Caminho 60" d="M3183.621,1776.851v2.015a.848.848,0,0,0,.865.935,2.116,2.116,0,0,0,1.4-.66v.637l.037.024a8.138,8.138,0,0,1,1.136-.243v-.167h-.314c-.135,0-.217,0-.217-.148v-2.9l-.063-.143c-.08,0-.521.063-1.23.111v.138c.281.083.649.169.649.325v2.117a1.762,1.762,0,0,1-.95.481c-.684,0-.684-.677-.684-.915v-2.029c0-.173,0-.227-.084-.227s-.735.047-1.014.056v.149c.433.037.467.234.467.433" transform="translate(-3149.924 -1755.577)"></path>
          <path id="Caminho_61" data-name="Caminho 61" d="M1.8,6.129A2.165,2.165,0,0,1,.8,5.9L.708,5.846l-.236.178L.31,5.947a9.169,9.169,0,0,0,.108-1.4V1.163A.753.753,0,0,0,.329.706a.541.541,0,0,0-.3-.149L0,.548V.433A5.161,5.161,0,0,0,.812.087L.987,0l.058.11V2.981A3.17,3.17,0,0,1,1.589,2.6,1.329,1.329,0,0,1,3.3,2.921a1.663,1.663,0,0,1,.288.528,1.949,1.949,0,0,1,.1.621,2.215,2.215,0,0,1-.517,1.416,1.858,1.858,0,0,1-.593.468,1.732,1.732,0,0,1-.779.175Zm0-3.289a1.217,1.217,0,0,0-.749.37V5.122a.866.866,0,0,0,.216.515.829.829,0,0,0,.247.208.756.756,0,0,0,.351.084,1.05,1.05,0,0,0,.911-.5A1.916,1.916,0,0,0,3.059,4.4a1.732,1.732,0,0,0-.4-1.1,1.422,1.422,0,0,0-.4-.336.953.953,0,0,0-.463-.13Z" transform="translate(37.112 18.084)"></path>
          <path id="Caminho_62" data-name="Caminho 62" d="M2864.043,1833.208c-.217,0-.466-.015-.637-.015h-.016v.165h.076c.157,0,.3.019.3.216v2.24c0,.217-.146.217-.3.217h-.076v.167h.016c.171,0,.423-.018.63-.018s.47.018.678.018h.018v-.167h-.075c-.156,0-.3-.017-.3-.217v-2.24c0-.216.145-.216.3-.216h.075v-.165h-.022c-.206,0-.457.015-.671.015" transform="translate(-2859.19 -1807.401)"></path>
          <path id="Caminho_63" data-name="Caminho 63" d="M2882.506,1833.22c-.2,0-.4-.015-.6-.015h-.017v.165H2882c.128,0,.353.044.353.385v1.574l-1.879-2.119h-.394c-.162,0-.329-.015-.492-.015h-.018v.165h.074a.368.368,0,0,1,.369.368v1.8c0,.342-.082.521-.366.523h-.078v.167h.018c.2,0,.392-.018.585-.018s.365.018.549.018h.022v-.167h-.095c-.32,0-.377-.108-.381-.483v-1.715l2.165,2.42h.2v-.02a2.675,2.675,0,0,1-.024-.433v-1.948c0-.507.184-.521.364-.526h.081v-.165h-.017c-.178,0-.353.015-.526.015" transform="translate(-2873.901 -1807.413)"></path>
          <path id="Caminho_64" data-name="Caminho 64" d="M2921.624,1831.672v.021l-.216.119h-2.232l-.217-.113v-.013h-.136v.02l-.026.362-.052.364v.02h.166v-.013c.07-.315.065-.37.381-.374h.684v2.269c0,.329-.1.333-.34.338h-.1v.169h.018c.168,0,.469-.016.725-.016s.528.016.7.016H2921v-.169h-.1c-.2,0-.333-.024-.335-.346v-2.26h.684c.271,0,.287.232.3.394v.026l.15-.056h.012v-.357l.048-.346v-.018l-.121-.021Z" transform="translate(-2909.518 -1806.017)"></path>
          <path id="Caminho_65" data-name="Caminho 65" d="M2955.445,1835.455v.017c-.125.48-.338.507-.849.507-.281,0-.506,0-.506-.258v-.978h.5c.285,0,.285.145.316.409v.018l.163-.032v-.015c0-.164-.014-.324-.014-.487s0-.334.014-.5v-.018h-.163v.015c-.028.234-.073.359-.318.361h-.494v-1.082h.579c.433,0,.478.2.5.483v.022l.15-.039h.016v-.015c0-.121-.016-.281-.016-.432v-.234h-.019c-.292,0-.736.015-1.1.015s-.806-.015-1.064-.015h-.019v.165h.078c.153,0,.3.018.3.227v2.241c0,.216-.148.216-.3.216h-.078v.167h.019c.245,0,.752-.02,1.139-.02s.866.02,1.149.02h.018v-.018c.037-.216.089-.452.148-.679v-.015l-.137-.035Z" transform="translate(-2940.781 -1807.39)"></path>
          <path id="Caminho_66" data-name="Caminho 66" d="M1.394,3.034H0V2.86H.1c.175,0,.281-.08.281-.217V.479A.316.316,0,0,0,.29.219.32.32,0,0,0,.1.167H0V0H.684c.154,0,.247.011.362,0s.216,0,.325,0a1.394,1.394,0,0,1,.721.152A.621.621,0,0,1,2.321.39a.808.808,0,0,1-.5,1.145l.719,1.083a.448.448,0,0,0,.4.247h.015v.169H2.1a11.269,11.269,0,0,1-.885-1.392H.966v.9c0,.32.132.323.329.323h.1Zm-.2-2.84L.974.208V1.451h.184A.68.68,0,0,0,1.635,1.3.671.671,0,0,0,1.8.8.563.563,0,0,0,1.191.193Z" transform="translate(14.977 25.789)"></path>
          <path id="Caminho_67" data-name="Caminho 67" d="M3019.212,1833.362v-.164h-.022c-.177,0-.351.015-.526.015s-.4-.015-.6-.015h-.018v.164h.111c.128,0,.355.043.355.388v1.574l-1.881-2.12h-.394c-.162,0-.332-.015-.494-.015h-.018v.165h.073a.365.365,0,0,1,.37.368v1.8c0,.342-.082.521-.366.526h-.076v.165h.018c.192,0,.391-.015.584-.015s.366.015.55.015h.02v-.165h-.091c-.325,0-.381-.111-.386-.483v-1.717l2.176,2.423h.2v-.019a2.429,2.429,0,0,1-.029-.433v-1.949c0-.506.19-.522.368-.526Z" transform="translate(-2997.698 -1807.406)"></path>
          <path id="Caminho_68" data-name="Caminho 68" d="M1.015,3.133H.929c-.147,0-.3-.013-.448-.013a3.929,3.929,0,0,0-.4.013H0V2.968H.045A.357.357,0,0,0,.262,2.9.411.411,0,0,0,.4,2.7L1.082.736A4.867,4.867,0,0,0,1.254.195,1.97,1.97,0,0,0,1.643,0h.043l.045.028.039.106.786,2.247L2.6,2.5c.039.115.078.217.119.316a.245.245,0,0,0,.264.16h.05v.165H2.923c-.16,0-.327-.013-.5-.013s-.349,0-.53.013H1.756V2.968h.067l.245-.106a1.344,1.344,0,0,0-.082-.3l-.162-.483H.879l-.136.433c-.015.054-.032.1-.048.147a.669.669,0,0,0-.045.178c0,.115.193.132.305.132h.061v.167ZM1.342.65h0L.97,1.8h.745Z" transform="translate(21.455 25.683)"></path>
          <path id="Caminho_69" data-name="Caminho 69" d="M3085.5,1831.672v.024l-.216.114h-2.23l-.217-.113v-.013h-.135v.019l-.026.362-.049.362v.02h.165v-.013c.068-.316.06-.37.379-.374h.682v2.269c0,.329-.1.333-.337.338h-.1v.169h.013c.167,0,.468-.015.723-.015s.531.015.7.015h.018v-.169h-.1c-.2,0-.333-.024-.336-.346v-2.26h.684c.271,0,.288.232.3.394v.026l.154-.056h.015v-.357l.048-.347v-.017l-.123-.022Z" transform="translate(-3058.518 -1806.017)"></path>
          <path id="Caminho_70" data-name="Caminho 70" d="M3117.888,1833.225c-.217,0-.465-.015-.636-.015h-.015v.16h.078c.156,0,.294.022.3.229v2.243c0,.216-.143.216-.3.216h-.078v.167h.015c.169,0,.42-.017.632-.017s.468.017.676.017h.017v-.167h-.075c-.158,0-.3-.015-.3-.216V1833.6c0-.216.141-.216.3-.229h.075v-.16h-.017c-.2,0-.461.015-.672.015" transform="translate(-3089.992 -1807.416)"></path>
          <path id="Caminho_71" data-name="Caminho 71" d="M1.622,3.153A1.68,1.68,0,0,1,.468,2.72,1.44,1.44,0,0,1,.126,2.23,1.63,1.63,0,0,1,0,1.6,1.6,1.6,0,0,1,.463.461,1.6,1.6,0,0,1,1.6,0,1.79,1.79,0,0,1,2.771.4a1.373,1.373,0,0,1,.355.463,1.5,1.5,0,0,1,.121.63,1.816,1.816,0,0,1-.119.669,1.541,1.541,0,0,1-.346.522,1.645,1.645,0,0,1-1.16.465ZM1.591.217a.831.831,0,0,0-.753.4,1.546,1.546,0,0,0-.2.825A1.962,1.962,0,0,0,.894,2.473a.888.888,0,0,0,.766.455.942.942,0,0,0,.494-.113.8.8,0,0,0,.29-.314,1.949,1.949,0,0,0,.173-.9A1.732,1.732,0,0,0,2.366.676.907.907,0,0,0,1.591.217Z" transform="translate(28.678 25.729)"></path>
          <path id="Caminho_72" data-name="Caminho 72" d="M3173.167,1833.362v-.164h-.018c-.177,0-.35.015-.525.015s-.4-.015-.6-.015H3172v.164h.115c.125,0,.351.043.351.388v1.574l-1.879-2.12h-.4c-.16,0-.324-.015-.493-.015h-.016v.165h.071a.366.366,0,0,1,.368.368v1.8c0,.342-.084.522-.366.524h-.076v.167h.016c.2,0,.389-.015.584-.015s.366.015.552.015h.02v-.167h-.093c-.322,0-.376-.109-.383-.481v-1.717l2.165,2.422h.2v-.019a3.257,3.257,0,0,1-.021-.433v-1.948c0-.507.188-.521.363-.526Z" transform="translate(-3137.68 -1807.406)"></path>
          <path id="Caminho_73" data-name="Caminho 73" d="M1.018,3.131H1c-.165,0-.342-.015-.515-.015s-.3,0-.463.015H0V2.968H.045A.377.377,0,0,0,.4,2.7L1.082.734A5.56,5.56,0,0,0,1.254.193,1.923,1.923,0,0,0,1.643,0h.043l.045.026.037.106.792,2.249V2.4a3.724,3.724,0,0,0,.152.414.249.249,0,0,0,.266.162h.052v.165H3.007c-.2,0-.388-.015-.589-.015s-.446,0-.649.015H1.758V2.968h.065L2.07,2.86a1.3,1.3,0,0,0-.084-.3l-.165-.483H.866l-.132.433q-.023.078-.045.143h0a.589.589,0,0,0-.039.182c0,.061.052.134.3.134h.069v.165ZM1.344.65h0L.968,1.8h.751Z" transform="translate(35.43 25.686)"></path>
          <path id="Caminho_74" data-name="Caminho 74" d="M3244.269,1835.461v.015l-.132.3a.6.6,0,0,1-.4.217l-.319.017h-.239c-.134-.02-.238-.062-.241-.217v-2.208c0-.216.107-.216.271-.216h.125v-.165h-.017c-.217,0-.433.015-.65.015s-.446-.015-.675-.015h-.017v.165h.068c.156,0,.3.018.3.216v2.2c0,.253-.146.269-.3.271h-.078v.165h.017c.379,0,.756-.015,1.132-.015s.753.015,1.128.015h.016v-.013c.051-.245.11-.485.16-.728v-.023Z" transform="translate(-3203.402 -1807.409)"></path>
          <path id="Caminho_75" data-name="Caminho 75" d="M.451.9A.433.433,0,0,1,0,.453.452.452,0,0,1,.128.132.446.446,0,0,1,.451,0,.446.446,0,0,1,.9.453a.45.45,0,0,1-.13.32A.448.448,0,0,1,.451.9Zm0-.816A.353.353,0,0,0,.193.2a.372.372,0,0,0-.1.255.375.375,0,0,0,.1.255.353.353,0,0,0,.258.11A.368.368,0,0,0,.808.453.375.375,0,0,0,.7.2.349.349,0,0,0,.451.087Z" transform="translate(40.505 25.688)"></path>
          <path id="Caminho_76" data-name="Caminho 76" d="M.216.478H0V.457L.065.414V.082L0,.022V0H.236L.385.119.277.255l.076.1.1.1V.478H.364L.2.268H.152V.42L.216.457ZM.152.028V.245H.206L.29.126.2.028Z" transform="translate(40.73 25.9)"></path>
          <path id="Caminho_77" data-name="Caminho 77" d="M43.083,32.655H1.782A1.782,1.782,0,0,1,.141,31.572,1.752,1.752,0,0,1,0,30.886V1.771A1.76,1.76,0,0,1,.522.517,1.782,1.782,0,0,1,1.782,0h41.3a1.784,1.784,0,0,1,1.643,1.083,1.749,1.749,0,0,1,.141.688V30.886a1.758,1.758,0,0,1-.522,1.251,1.784,1.784,0,0,1-1.26.517ZM1.782.433a1.334,1.334,0,0,0-.946.39,1.316,1.316,0,0,0-.4.948V30.886a1.316,1.316,0,0,0,.392.94,1.334,1.334,0,0,0,.946.39H43.083a1.336,1.336,0,0,0,1.338-1.329V1.771A1.336,1.336,0,0,0,43.083.433Z" transform="translate(0 0)"></path>
        </g>
        <g id="Grupo_319" data-name="Grupo 319" transform="translate(656.383 198.708)">
          <g id="Grupo_66" data-name="Grupo 66" transform="translate(4.277)" clip-path="url(#clip-path-2)">
            <rect id="Retângulo_98" data-name="Retângulo 98" width="33.331" height="32.643" transform="translate(-0.073 -0.141)" fill="none" stroke="#000" stroke-width="1.5"></rect>
          </g>
          <path id="União_2" data-name="União 2" d="M19.732,11.871H17.283V10.437a3.064,3.064,0,0,1-1.186.185h-.375v1.248H12.753l-.727-.827-.774.827H6.435V6.554h4.907l.7.818.76-.818h3.285a3.808,3.808,0,0,1,.679.056,1.18,1.18,0,0,1,.6.257V6.554h2.929a3.147,3.147,0,0,1,.589.06,1.675,1.675,0,0,1,.642.25V6.554h4.452v.313a1.768,1.768,0,0,1,1.077-.313h2.5v.313a1.923,1.923,0,0,1,1.142-.313h1.689v.76H30.569c-.63,0-1.3.3-1.3,1.133,0,1.126.926,1.158,1.756,1.172h.157A.463.463,0,0,1,31.5,9.7a.316.316,0,0,1,.116.253.332.332,0,0,1-.109.246.515.515,0,0,1-.371.1h-1.76v.82h1.756A2.074,2.074,0,0,0,31.883,11a1.025,1.025,0,0,0,.484-.369v.99a3.056,3.056,0,0,1-1.336.247H28.676v-.34a1.477,1.477,0,0,1-.542.255,2.7,2.7,0,0,1-.695.088H20.012V10.641c0-.148,0-.158-.167-.158h-.113v1.391Zm6.083-1.566v.82H27.59a1.637,1.637,0,0,0,1.058-.3,1.113,1.113,0,0,0,.371-.911,1.053,1.053,0,0,0-.273-.815.92.92,0,0,0-.413-.231,2.578,2.578,0,0,0-.627-.063l-.489-.014a1,1,0,0,1-.353-.047.286.286,0,0,1-.2-.283A.3.3,0,0,1,26.8,8.19a.638.638,0,0,1,.366-.068h1.67V7.314H27.008c-.959,0-1.3.586-1.3,1.133a.98.98,0,0,0,.57,1,3.228,3.228,0,0,0,1.184.171h.162a.463.463,0,0,1,.322.085.314.314,0,0,1,.113.253.327.327,0,0,1-.107.246.524.524,0,0,1-.373.1ZM12.028,9.862l1.121,1.263h1.768V9.842h1.138a2.035,2.035,0,0,0,1.092-.231.978.978,0,0,0,.356-.39,1.409,1.409,0,0,0,.134-.653,1.388,1.388,0,0,0-.136-.639.985.985,0,0,0-.359-.382,1.941,1.941,0,0,0-1.036-.231H13.2L12.039,8.558,10.921,7.314H7.262v3.809h3.6L12.021,9.86Zm10.208,1.261h3.038V10.33H23.142V9.566h2.084V8.792H23.142V8.1h2.131V7.314H22.235Zm-4.168,0h.913V9.733l0,0h.976a.877.877,0,0,1,.667.169,1.027,1.027,0,0,1,.149.679v.542h.91v-.752a1.085,1.085,0,0,0-.15-.7.939.939,0,0,0-.443-.319.989.989,0,0,0,.408-.318,1.1,1.1,0,0,0,.232-.695,1,1,0,0,0-.125-.524.927.927,0,0,0-.338-.324,2.182,2.182,0,0,0-1.1-.178h-2.1Zm-5.447-1.9,1.391-1.507v3.063ZM8.166,10.33V9.566h2V8.792h-2V8.1h2.28l1,1.107-1.039,1.12,0,.006ZM32.355,9.175a.437.437,0,0,0-.053-.063.911.911,0,0,0-.41-.231,2.633,2.633,0,0,0-.627-.079l-.5-.006a.993.993,0,0,1-.352-.047.287.287,0,0,1-.2-.283.3.3,0,0,1,.135-.275.643.643,0,0,1,.365-.068h1.673V9.212ZM14.917,9.068V8.1h1.189a.654.654,0,0,1,.4.109.424.424,0,0,1,.155.359c0,.318-.208.5-.57.5Zm5.169-.113v0H18.978V8.1H20.1a.875.875,0,0,1,.428.074.359.359,0,0,1,.188.341.407.407,0,0,1-.188.355.894.894,0,0,1-.38.086ZM6.375,5.319,6.1,4.668v.649H3.039l-.35-.846H1.906l-.353.843H0V4.567H1l.005,0,.352-.85H3.246l.344.85H5.459V1.6L6.771,4.567h.8l.012,0,1.3-2.953,0,2.956h.927l.01,0V.762H9.814l-1.5,0,0,0-1.1,2.577L6.026.758H4.538v0l0,3.59L2.993.758l0,0H1.635L1.1,2.016,0,4.564V2.534L1.1,0H3.477l.308.628V0h2.78l.608,1.369L7.765,0H16.6c.039,0,.079,0,.119,0a1.492,1.492,0,0,1,.912.312V0h2.412V.312A3.1,3.1,0,0,1,21.395,0c.057,0,.113,0,.169,0h3.5l.325.628V0h2.595l.349.628V0h2.525v5.31H28.315l-.482-.8v.8H24.647l-.35-.846h-.786l-.343.846H21.425a3.127,3.127,0,0,1-1.382-.323v.322H16.106V4.108c0-.171-.039-.178-.134-.178h-.139V5.318h-7.6V4.661l-.276.658H6.375ZM20.79.867a1.359,1.359,0,0,0-.568.338,1.632,1.632,0,0,0-.392.7,2.818,2.818,0,0,0-.1.8,1.926,1.926,0,0,0,.491,1.458,1.966,1.966,0,0,0,1.212.421l.1,0h1.068l.331-.866h1.9l.352.852h1.853V1.712l1.731,2.855h1.291V.758h-.927V3.41L27.527.758h-1.39v3.6L24.6.758H23.236L21.955,3.75h-.408a.754.754,0,0,1-.077,0,.888.888,0,0,1-.555-.2,1.3,1.3,0,0,1-.25-.895A1.268,1.268,0,0,1,20.92,1.8a.876.876,0,0,1,.6-.237.863.863,0,0,1,.1.005h.859V.758h-.922A2.7,2.7,0,0,0,20.79.867ZM14.172,4.573h.912V4.567H15.1V3.185h-.015l.015,0,.961,0,.013,0a2.175,2.175,0,0,1,.34.021.894.894,0,0,1,.31.144l.006.01a1.14,1.14,0,0,1,.149.582c0,.025,0,.05-.007.075v.037c0,.012,0,.023,0,.035v.475h0l.927,0V3.816a1.084,1.084,0,0,0-.156-.7A1.066,1.066,0,0,0,17.2,2.8a1.072,1.072,0,0,0,.644-1.013.991.991,0,0,0-.018-.212.914.914,0,0,0-.045-.159,1,1,0,0,0-.067-.145.926.926,0,0,0-.334-.336,2.17,2.17,0,0,0-.9-.194c-.067,0-.135,0-.2.009H14.192V.767h-.02Zm4.185-.006h.927V.758h-.927ZM10.5.762v3.8l3.042,0v-.79H11.418V3.039H13.5V2.255h-.012V2.24H11.418V1.559h2.125v-.8l-3.04,0v0h0ZM1.677,2.924,2.3,1.407l.625,1.517Zm22.844,0H23.269l.624-1.515.629,1.514h0ZM16.191,2.4H15.086V1.553H16.2a.96.96,0,0,1,.436.069.346.346,0,0,1,.187.334.408.408,0,0,1-.184.369v0a.884.884,0,0,1-.374.083Q16.23,2.4,16.191,2.4Z" transform="translate(4.276 11.139)"></path>
          <path id="Caminho_80" data-name="Caminho 80" d="M1.537,3.068A1.533,1.533,0,0,1,.457.448a1.552,1.552,0,0,1,2.182,0,1.535,1.535,0,0,1-1.1,2.62Zm0-2.836A1.3,1.3,0,0,0,.61.617a1.311,1.311,0,0,0-.371.927,1.309,1.309,0,1,0,2.616,0A1.314,1.314,0,0,0,2.484.617,1.3,1.3,0,0,0,1.537.232Zm-.28,2.009H1V.8h.667A.609.609,0,0,1,2,.881a.357.357,0,0,1,.155.32A.371.371,0,0,1,2,1.525c.058.035.116.1.127.264l.012.25c0,.072,0,.083.07.116v.086H1.921a1.888,1.888,0,0,1-.042-.387c0-.114-.016-.209-.209-.209H1.252v.588Zm0-1.216v.4H1.65c.232,0,.25-.111.25-.206,0-.171-.116-.195-.218-.195Z" transform="translate(-0.005 29.587)"></path>
        </g>
        <g id="Grupo_320" data-name="Grupo 320" transform="translate(591.645 146)">
          <g id="Grupo_67" data-name="Grupo 67" transform="translate(2.228 28.939)">
            <path id="Caminho_107" data-name="Caminho 107" d="M7.49-22.723A1.264,1.264,0,0,0,7.069-23a1.475,1.475,0,0,0-.54-.1,2.1,2.1,0,0,0-.324.027,1.511,1.511,0,0,0-.33.092,1.245,1.245,0,0,0-.307.189,1.2,1.2,0,0,0-.252.3,1.245,1.245,0,0,0-.467-.45,1.385,1.385,0,0,0-.679-.164,1.88,1.88,0,0,0-.265.025,1.4,1.4,0,0,0-.273.08,1.158,1.158,0,0,0-.258.156,1.126,1.126,0,0,0-.221.248v-.42H2.433v3.426H3.16v-1.891a1.067,1.067,0,0,1,.067-.389.871.871,0,0,1,.185-.284.822.822,0,0,1,.271-.174.945.945,0,0,1,.332-.059.727.727,0,0,1,.57.231.986.986,0,0,1,.21.664v1.906H5.52v-1.891a1.026,1.026,0,0,1,.069-.389.871.871,0,0,1,.185-.284.822.822,0,0,1,.271-.174.937.937,0,0,1,.332-.059.722.722,0,0,1,.567.231.986.986,0,0,1,.21.664v1.906h.727v-2.152a1.5,1.5,0,0,0-.1-.551,1.291,1.291,0,0,0-.28-.431" transform="translate(-2.433 23.108)"></path>
          </g>
          <g id="Grupo_68" data-name="Grupo 68" transform="translate(8.325 28.943)">
            <path id="Caminho_108" data-name="Caminho 108" d="M7.048-19.5a1.71,1.71,0,0,1-.662-.134,1.7,1.7,0,0,1-.544-.372,1.734,1.734,0,0,1-.374-.576,1.973,1.973,0,0,1-.132-.721,1.926,1.926,0,0,1,.132-.723,1.739,1.739,0,0,1,.366-.572,1.671,1.671,0,0,1,.553-.374,1.67,1.67,0,0,1,.662-.132,1.334,1.334,0,0,1,.63.137,1.324,1.324,0,0,1,.446.368v-.42H8.87V-19.6H8.124v-.42a1.351,1.351,0,0,1-.443.364A1.376,1.376,0,0,1,7.048-19.5Zm.088-2.9a.973.973,0,0,0-.435.088.933.933,0,0,0-.315.235,1.019,1.019,0,0,0-.21.349,1.235,1.235,0,0,0-.071.42,1.253,1.253,0,0,0,.071.42,1.061,1.061,0,0,0,.21.349,1.024,1.024,0,0,0,.322.237,1.072,1.072,0,0,0,.435.086,1.1,1.1,0,0,0,.42-.084,1,1,0,0,0,.536-.578,1.264,1.264,0,0,0,0-.87,1.02,1.02,0,0,0-.21-.349.941.941,0,0,0-.326-.231A1.016,1.016,0,0,0,7.136-22.4Z" transform="translate(-5.335 23.106)"></path>
          </g>
          <g id="Grupo_69" data-name="Grupo 69" transform="translate(12.569 28.945)">
            <path id="Caminho_109" data-name="Caminho 109" d="M10.084-21.31a1.836,1.836,0,0,0-.876-.328l-.353-.055a2.059,2.059,0,0,1-.221-.042.78.78,0,0,1-.179-.061.4.4,0,0,1-.122-.1.271.271,0,0,1-.044-.151.34.34,0,0,1,.17-.294.846.846,0,0,1,.477-.113,1.592,1.592,0,0,1,.317.029,2.309,2.309,0,0,1,.294.071,1.753,1.753,0,0,1,.254.095,1.493,1.493,0,0,1,.191.1l.322-.584a2.167,2.167,0,0,0-.63-.267,3,3,0,0,0-.763-.092,2.066,2.066,0,0,0-.588.076,1.356,1.356,0,0,0-.446.21.942.942,0,0,0-.284.345,1.075,1.075,0,0,0-.1.458.846.846,0,0,0,.294.67,1.675,1.675,0,0,0,.868.334l.357.046a1.1,1.1,0,0,1,.45.139.275.275,0,0,1,.143.242.34.34,0,0,1-.2.307,1.227,1.227,0,0,1-.582.111,2.294,2.294,0,0,1-.378-.029,2.58,2.58,0,0,1-.3-.076,1.607,1.607,0,0,1-.246-.111c-.071-.042-.143-.086-.21-.135l-.347.561a2.12,2.12,0,0,0,.391.225,2.972,2.972,0,0,0,.4.135,2.748,2.748,0,0,0,.372.063c.116,0,.21.017.309.017a2.394,2.394,0,0,0,.658-.084,1.494,1.494,0,0,0,.49-.229,1,1,0,0,0,.3-.353.973.973,0,0,0,.105-.454.819.819,0,0,0-.315-.685" transform="translate(-7.354 23.105)"></path>
          </g>
          <g id="Grupo_70" data-name="Grupo 70" transform="translate(19.422 28.943)">
            <path id="Caminho_110" data-name="Caminho 110" d="M12.368-19.5a1.958,1.958,0,0,1-.7-.128A1.662,1.662,0,0,1,11.1-20a1.719,1.719,0,0,1-.361-.567,2.036,2.036,0,0,1-.128-.742,2.118,2.118,0,0,1,.124-.733,1.718,1.718,0,0,1,.353-.57,1.526,1.526,0,0,1,.538-.368,1.743,1.743,0,0,1,.691-.13,1.631,1.631,0,0,1,.656.13,1.407,1.407,0,0,1,.511.368,1.7,1.7,0,0,1,.332.567,2.153,2.153,0,0,1,.12.731v.1h0v.177H11.395a1.17,1.17,0,0,0,.135.4.976.976,0,0,0,.231.269.962.962,0,0,0,.3.156,1.247,1.247,0,0,0,.351.044,1.521,1.521,0,0,0,.513-.088,1.7,1.7,0,0,0,.475-.265l.37.532a1.9,1.9,0,0,1-.668.376A2.628,2.628,0,0,1,12.368-19.5Zm-.061-2.94a.991.991,0,0,0-.357.061.793.793,0,0,0-.267.174.979.979,0,0,0-.185.267,1.343,1.343,0,0,0-.1.343h1.778a1.046,1.046,0,0,0-.286-.63A.794.794,0,0,0,12.307-22.442Z" transform="translate(-10.615 23.106)"></path>
          </g>
          <g id="Grupo_71" data-name="Grupo 71" transform="translate(29.437 28.943)">
            <path id="Caminho_111" data-name="Caminho 111" d="M17.093-19.5a1.71,1.71,0,0,1-.662-.134,1.7,1.7,0,0,1-.544-.372,1.734,1.734,0,0,1-.374-.576,1.973,1.973,0,0,1-.132-.721,1.926,1.926,0,0,1,.132-.723,1.739,1.739,0,0,1,.366-.572,1.671,1.671,0,0,1,.553-.374,1.67,1.67,0,0,1,.662-.132,1.334,1.334,0,0,1,.63.137,1.324,1.324,0,0,1,.446.368v-.42h.746V-19.6h-.746v-.42a1.351,1.351,0,0,1-.443.364A1.376,1.376,0,0,1,17.093-19.5Zm.088-2.9a.973.973,0,0,0-.435.088.933.933,0,0,0-.315.235,1.02,1.02,0,0,0-.21.349,1.236,1.236,0,0,0-.071.42,1.253,1.253,0,0,0,.071.42,1.061,1.061,0,0,0,.21.349,1.024,1.024,0,0,0,.322.237,1.072,1.072,0,0,0,.435.086,1.1,1.1,0,0,0,.42-.084,1.022,1.022,0,0,0,.326-.231,1.031,1.031,0,0,0,.21-.347,1.288,1.288,0,0,0,0-.87,1.019,1.019,0,0,0-.21-.349.941.941,0,0,0-.326-.231A1.016,1.016,0,0,0,17.181-22.4Z" transform="translate(-15.38 23.106)"></path>
          </g>
          <g id="Grupo_72" data-name="Grupo 72" transform="translate(16.171 27.989)">
            <path id="Caminho_112" data-name="Caminho 112" d="M11.4-19.775a1.075,1.075,0,0,1-.355.067.709.709,0,0,1-.21-.034.5.5,0,0,1-.172-.111.518.518,0,0,1-.116-.21.865.865,0,0,1-.044-.292v-1.488h1.2v-.679H10.5V-23.56H9.751v1.038H9.068v.679h.683v1.5a1.379,1.379,0,0,0,.324,1.007,1.226,1.226,0,0,0,.906.326,1.64,1.64,0,0,0,.586-.1,2.118,2.118,0,0,0,.319-.151l-.254-.633a1.751,1.751,0,0,1-.229.107" transform="translate(-9.068 23.56)"></path>
          </g>
          <g id="Grupo_73" data-name="Grupo 73" transform="translate(23.584 28.935)">
            <path id="Caminho_113" data-name="Caminho 113" d="M14.262-23.1a1.32,1.32,0,0,0-.567.116,1.185,1.185,0,0,0-.42.42v-.45H12.6v3.426h.685v-1.891a1.213,1.213,0,0,1,.061-.389.889.889,0,0,1,.168-.29.714.714,0,0,1,.261-.179A.84.84,0,0,1,14.1-22.4a1.352,1.352,0,0,1,.292.032,1.142,1.142,0,0,1,.151.042l.212-.715a1.457,1.457,0,0,0-.183-.046,1.723,1.723,0,0,0-.311-.023" transform="translate(-12.595 23.11)"></path>
          </g>
          <g id="Grupo_74" data-name="Grupo 74" transform="translate(33.972 28.935)">
            <path id="Caminho_114" data-name="Caminho 114" d="M19.207-23.1a1.336,1.336,0,0,0-.57.116,1.185,1.185,0,0,0-.42.42v-.45h-.679v3.426h.685v-1.891a1.158,1.158,0,0,1,.061-.389.889.889,0,0,1,.168-.29.682.682,0,0,1,.259-.179.841.841,0,0,1,.328-.061,1.352,1.352,0,0,1,.292.032,1.142,1.142,0,0,1,.151.042l.21-.715a1.293,1.293,0,0,0-.183-.046,1.663,1.663,0,0,0-.307-.023" transform="translate(-17.538 23.11)"></path>
          </g>
          <g id="Grupo_75" data-name="Grupo 75" transform="translate(36.342 27.638)">
            <path id="Caminho_115" data-name="Caminho 115" d="M20.379-18.82a1.71,1.71,0,0,1-.662-.135,1.7,1.7,0,0,1-.544-.374,1.774,1.774,0,0,1-.366-.57,1.993,1.993,0,0,1-.141-.723,1.937,1.937,0,0,1,.132-.725,1.705,1.705,0,0,1,.366-.572,1.614,1.614,0,0,1,.553-.372,1.636,1.636,0,0,1,.662-.135,1.336,1.336,0,0,1,.63.139,1.294,1.294,0,0,1,.446.366v-1.807H22.2v4.819h-.746v-.406a1.357,1.357,0,0,1-.443.366A1.422,1.422,0,0,1,20.379-18.82Zm.088-2.9a1.008,1.008,0,0,0-.435.095.921.921,0,0,0-.315.231,1.019,1.019,0,0,0-.21.349,1.235,1.235,0,0,0-.071.42,1.253,1.253,0,0,0,.071.42,1.061,1.061,0,0,0,.21.349,1.017,1.017,0,0,0,.322.235,1.081,1.081,0,0,0,.429.1,1.1,1.1,0,0,0,.42-.082,1.023,1.023,0,0,0,.326-.231,1.031,1.031,0,0,0,.21-.347,1.27,1.27,0,0,0,0-.872.991.991,0,0,0-.21-.347.941.941,0,0,0-.326-.231A1,1,0,0,0,20.467-21.72Z" transform="translate(-18.666 23.727)"></path>
          </g>
          <g id="Grupo_76" data-name="Grupo 76" transform="translate(25.954 28.937)">
            <path id="Caminho_116" data-name="Caminho 116" d="M14.807-22.094a.984.984,0,0,1,.338-.225,1.075,1.075,0,0,1,.42-.08,1.305,1.305,0,0,1,.467.08,1.1,1.1,0,0,1,.361.21l.361-.6a1.826,1.826,0,0,0-.456-.263,2.041,2.041,0,0,0-1.471,0,1.725,1.725,0,0,0-.582.38,1.759,1.759,0,0,0-.385.57,1.915,1.915,0,0,0,0,1.431,1.738,1.738,0,0,0,.385.57,1.79,1.79,0,0,0,.582.38,2.041,2.041,0,0,0,1.471,0,1.761,1.761,0,0,0,.456-.265l-.361-.6a1.174,1.174,0,0,1-.361.21,1.351,1.351,0,0,1-.467.078,1.113,1.113,0,0,1-.42-.078,1.02,1.02,0,0,1-.338-.227,1.093,1.093,0,0,1-.225-.349,1.246,1.246,0,0,1,0-.889,1.093,1.093,0,0,1,.225-.349" transform="translate(-13.723 23.109)"></path>
          </g>
          <g id="Grupo_77" data-name="Grupo 77" transform="translate(41.092 31.954)">
            <path id="Caminho_117" data-name="Caminho 117" d="M21.287-20.973A.418.418,0,0,1,21.136-21a.35.35,0,0,1-.105-.078.359.359,0,0,1-.078-.109.345.345,0,0,1-.027-.137.341.341,0,0,1,.027-.139.335.335,0,0,1,.078-.107.335.335,0,0,1,.105-.076.318.318,0,0,1,.151-.027.315.315,0,0,1,.139.027.325.325,0,0,1,.116.076.382.382,0,0,1,.076.107.309.309,0,0,1,.027.139.345.345,0,0,1-.027.137.425.425,0,0,1-.076.109A.367.367,0,0,1,21.287-20.973Zm0-.6a.241.241,0,0,0-.1.021.2.2,0,0,0-.08.055.216.216,0,0,0-.055.08.248.248,0,0,0-.019.1.286.286,0,0,0,.019.1.249.249,0,0,0,.055.078.253.253,0,0,0,.277.055.279.279,0,0,0,.082-.055.225.225,0,0,0,.05-.078.248.248,0,0,0,.021-.1.216.216,0,0,0-.021-.1.186.186,0,0,0-.05-.08A.248.248,0,0,0,21.287-21.576Zm-.048.408h-.086v-.311h.153a.129.129,0,0,1,.1.029.093.093,0,0,1,.032.076.089.089,0,0,1-.025.063.119.119,0,0,1-.065.032l.095.111h-.095l-.1-.107h0v.107Zm0-.233v.057h.067a.08.08,0,0,0,.04-.008V-21.4a.041.041,0,0,0-.032,0Z" transform="translate(-20.926 21.673)"></path>
          </g>
          <g id="Grupo_78" data-name="Grupo 78" transform="translate(0.104 0.099)">
            <path id="Caminho_118" data-name="Caminho 118" d="M17.442-23.919a12.886,12.886,0,0,1,4.9-10.124A12.909,12.909,0,0,0,4.21-31.932,12.912,12.912,0,0,0,6.322-13.8a12.909,12.909,0,0,0,16.023,0,12.892,12.892,0,0,1-4.9-10.124" transform="translate(-1.423 36.831)"></path>
          </g>
          <g id="Grupo_79" data-name="Grupo 79" transform="translate(40.918 19.52)">
            <path id="Caminho_119" data-name="Caminho 119" d="M21.473-27.109h-.118v-.481h.16l.12.309.12-.309h.164v.481H21.8v-.334l-.107.288h-.12l-.1-.288Zm-.359,0H21v-.378h-.153v-.1h.42v.1h-.156v.378Z" transform="translate(-20.843 27.59)" fill="#fff"></path>
          </g>
          <g id="Grupo_80" data-name="Grupo 80" transform="translate(21.026 0.105)">
            <path id="Caminho_120" data-name="Caminho 120" d="M19.385-36.826a12.843,12.843,0,0,0-8.007,2.787A12.9,12.9,0,0,1,13.5-15.911a12.867,12.867,0,0,1-2.118,2.118,12.912,12.912,0,0,0,18.135-2.118A12.907,12.907,0,0,0,27.4-34.043a12.89,12.89,0,0,0-8.011-2.785" transform="translate(-11.378 36.828)"></path>
          </g>
          <g id="Grupo_82" data-name="Grupo 82" transform="translate(15.958 0)">
            <path id="Caminho_1531" data-name="Caminho 1531" d="M12.925,0A12.91,12.91,0,1,1,0,12.91,12.917,12.917,0,0,1,12.925,0Z" transform="translate(0.105 0.105)"></path>
            <path id="Caminho_121" data-name="Caminho 121" d="M22-10.849A13.036,13.036,0,0,1,8.966-23.863,13.037,13.037,0,0,1,22-36.878a13.037,13.037,0,0,1,13.03,13.015A13.036,13.036,0,0,1,22-10.849Zm0-25.818A12.827,12.827,0,0,0,9.176-23.863,12.827,12.827,0,0,0,22-11.06a12.827,12.827,0,0,0,12.822-12.8A12.828,12.828,0,0,0,22-36.668Z" transform="translate(-8.966 36.878)" fill="#fff" stroke="#fff" stroke-width="0.7"></path>
          </g>
        </g>
      </g>
    </g>
  </svg>
