<svg xmlns="http://www.w3.org/2000/svg" width="81.287" height="63.13" viewBox="0 0 81.287 63.13">
    <g id="let-s-encrypt-seeklogo.com" transform="translate(-0.391 -0.311)">
      <g id="Grupo_654" data-name="Grupo 654" transform="translate(44.621 0.311)">
        <path id="Caminho_1538" data-name="Caminho 1538" d="M49.377,43.9h-4.7V41.475a3.513,3.513,0,0,0-7.025,0V43.9h-4.7V41.475a8.213,8.213,0,0,1,16.426,0Z" transform="translate(-22.611 -22.774)"></path>
        <path id="Caminho_1539" data-name="Caminho 1539" d="M43.784,66.68H23.5a1.563,1.563,0,0,0-1.583,1.583V83.254A1.563,1.563,0,0,0,23.5,84.837H43.784a1.563,1.563,0,0,0,1.583-1.583V68.263A1.627,1.627,0,0,0,43.784,66.68Zm-9.153,9.845v2.028a1.039,1.039,0,1,1-2.078,0V76.525a2.04,2.04,0,0,1-1.039-1.831,2.078,2.078,0,0,1,4.156,0A1.95,1.95,0,0,1,34.631,76.525Z" transform="translate(-15.088 -45.554)"></path>
        <path id="Caminho_1540" data-name="Caminho 1540" d="M6.8,53.54H1.9a1.435,1.435,0,0,1,0-2.87H6.8a1.435,1.435,0,0,1,0,2.87Z" transform="translate(-0.466 -34.641)"></path>
        <path id="Caminho_1541" data-name="Caminho 1541" d="M19.968,22.469a1.27,1.27,0,0,1-.891-.346l-3.859-3.166a1.441,1.441,0,1,1,1.831-2.226L20.908,19.9a1.467,1.467,0,0,1,.2,2.028A1.646,1.646,0,0,1,19.968,22.469Z" transform="translate(-10.172 -11.288)"></path>
        <path id="Caminho_1542" data-name="Caminho 1542" d="M55.68,8.128a1.436,1.436,0,0,1-1.435-1.435V1.746a1.435,1.435,0,1,1,2.87,0V6.693A1.436,1.436,0,0,1,55.68,8.128Z" transform="translate(-37.127 -0.311)"></path>
        <path id="Caminho_1543" data-name="Caminho 1543" d="M83.1,22.469a1.383,1.383,0,0,1-1.088-.544,1.472,1.472,0,0,1,.2-2.028l3.859-3.166A1.441,1.441,0,1,1,87.9,18.956l-3.859,3.166A1.388,1.388,0,0,1,83.1,22.469Z" transform="translate(-55.839 -11.288)"></path>
        <path id="Caminho_1544" data-name="Caminho 1544" d="M98.708,53.54H93.761a1.435,1.435,0,1,1,0-2.87h4.947a1.435,1.435,0,0,1,0,2.87Z" transform="translate(-63.087 -34.641)"></path>
      </g>
      <path id="Caminho_1545" data-name="Caminho 1545" d="M.391,88.242V72.261H4.25V84.877h6.184v3.364ZM23.2,82.75v.891H15.035a2.436,2.436,0,0,0,.3.841,1.853,1.853,0,0,0,.594.643,2.751,2.751,0,0,0,.841.445,3.106,3.106,0,0,0,.94.148,3,3,0,0,0,2.474-1.187l2.573,1.633a5.559,5.559,0,0,1-2.078,1.781,7.135,7.135,0,0,1-3.018.643,7.469,7.469,0,0,1-2.375-.4A6.077,6.077,0,0,1,13.3,87.054a5.794,5.794,0,0,1-1.831-4.4,5.669,5.669,0,0,1,.495-2.474,5.093,5.093,0,0,1,1.286-1.88,5.5,5.5,0,0,1,1.93-1.187,6.334,6.334,0,0,1,2.375-.445,6.652,6.652,0,0,1,2.276.4,5.615,5.615,0,0,1,1.781,1.187,5.391,5.391,0,0,1,1.138,1.93A7.2,7.2,0,0,1,23.2,82.75Zm-3.414-1.385a2.418,2.418,0,0,0-.544-1.534,2.031,2.031,0,0,0-1.682-.643,3.19,3.19,0,0,0-.989.148,2.509,2.509,0,0,0-.792.445,2.406,2.406,0,0,0-.544.693,2.373,2.373,0,0,0-.247.841h4.8Zm9.351-1.583v4.3a1.9,1.9,0,0,0,.3,1.187,1.312,1.312,0,0,0,1.088.4,2.408,2.408,0,0,0,.594-.049,3.074,3.074,0,0,0,.495-.148l.049,2.721a9.532,9.532,0,0,1-.989.247,9.608,9.608,0,0,1-1.187.1,5.167,5.167,0,0,1-1.88-.3,3.14,3.14,0,0,1-1.237-.792,2.877,2.877,0,0,1-.643-1.286,8.194,8.194,0,0,1-.2-1.633v-4.75H23.694V77.011h1.781V74.043h3.661v2.968h2.622v2.771Zm6.036-7.817A1.894,1.894,0,0,0,33.193,73.8a1.7,1.7,0,0,0,1.831,1.781.371.371,0,0,0,.247-.049,2.072,2.072,0,0,1-1.682,1.484H33.44v1.732h.2a4.218,4.218,0,0,0,2.375-1.088A4.51,4.51,0,0,0,37.3,74.29,2.164,2.164,0,0,0,35.172,71.965Zm8.559,8.361a3.962,3.962,0,0,0-1.039-.742,2.887,2.887,0,0,0-1.286-.3,2.008,2.008,0,0,0-.94.2.7.7,0,0,0-.445.693.722.722,0,0,0,.495.693,8.181,8.181,0,0,0,1.583.445,6.4,6.4,0,0,1,1.286.4,6.216,6.216,0,0,1,1.138.643,2.726,2.726,0,0,1,.841.99,3.012,3.012,0,0,1,.3,1.385,3.4,3.4,0,0,1-.445,1.781A3.275,3.275,0,0,1,44.077,87.7a5.3,5.3,0,0,1-1.534.643,6.894,6.894,0,0,1-1.732.2,7.968,7.968,0,0,1-2.672-.445,5.536,5.536,0,0,1-2.177-1.286l2.078-2.177a4.662,4.662,0,0,0,1.237.891,3.314,3.314,0,0,0,1.534.346,1.94,1.94,0,0,0,.891-.2.767.767,0,0,0,.445-.742.9.9,0,0,0-.544-.792,8.956,8.956,0,0,0-1.682-.495,10.743,10.743,0,0,1-1.187-.346,3.559,3.559,0,0,1-1.039-.594,3.466,3.466,0,0,1-.742-.94,2.946,2.946,0,0,1-.3-1.336,3.22,3.22,0,0,1,.445-1.732,3.431,3.431,0,0,1,1.088-1.138,3.99,3.99,0,0,1,1.484-.643,6.146,6.146,0,0,1,1.633-.2,8.346,8.346,0,0,1,2.474.4A4.9,4.9,0,0,1,45.809,78.3ZM.391,106.745V90.765H11.127V94.03H4.1v3.018h6.63v3.067H4.1v3.315h7.421v3.315Zm20.878,0V100.61a5.451,5.451,0,0,0-.1-.891,2.607,2.607,0,0,0-.247-.742,1.192,1.192,0,0,0-.495-.495,1.415,1.415,0,0,0-.841-.2,1.694,1.694,0,0,0-.891.2,2.22,2.22,0,0,0-.643.544,3.944,3.944,0,0,0-.4.792,2.8,2.8,0,0,0-.148.891v6.085H13.8V95.564h3.562V97.1h.049a2.406,2.406,0,0,1,.544-.693,2.8,2.8,0,0,1,.742-.594,5.362,5.362,0,0,1,.94-.4,3.858,3.858,0,0,1,1.088-.148,4.624,4.624,0,0,1,1.93.4A3.842,3.842,0,0,1,23.941,96.7a4.084,4.084,0,0,1,.693,1.484,6.27,6.27,0,0,1,.2,1.682v6.926H21.269Zm13.259-7.619a2.242,2.242,0,0,0-.841-.643,2.9,2.9,0,0,0-1.088-.247,2.3,2.3,0,0,0-1.039.247,1.986,1.986,0,0,0-.792.643,5.35,5.35,0,0,0-.544.891,3.092,3.092,0,0,0,0,2.177,2.07,2.07,0,0,0,.544.891,2.552,2.552,0,0,0,1.93.891,3.067,3.067,0,0,0,1.138-.2,2.29,2.29,0,0,0,.891-.643l2.028,2.523a4.842,4.842,0,0,1-1.781,1.039,7.4,7.4,0,0,1-2.325.4,7.857,7.857,0,0,1-2.474-.4,5.237,5.237,0,0,1-2.028-1.187,5.794,5.794,0,0,1-1.831-4.4,5.669,5.669,0,0,1,.495-2.474,5.873,5.873,0,0,1,1.336-1.88,5.5,5.5,0,0,1,2.028-1.187,6.832,6.832,0,0,1,2.474-.4,9.608,9.608,0,0,1,1.187.1c.4.1.792.2,1.138.3a9.888,9.888,0,0,1,1.039.495,3.455,3.455,0,0,1,.792.643Zm10.785-.544a1.758,1.758,0,0,0-.495-.1h-.445a3.055,3.055,0,0,0-1.237.247,2.642,2.642,0,0,0-.792.643,2.75,2.75,0,0,0-.445.841,2.461,2.461,0,0,0-.148.792v5.739H38.041V95.515H41.6v1.633h.049a3.357,3.357,0,0,1,1.237-1.385,3.318,3.318,0,0,1,1.831-.544h.445c.148,0,.247.049.346.049Zm8.708,9.845c-.247.594-.495,1.088-.742,1.583a5.74,5.74,0,0,1-.989,1.187,4.411,4.411,0,0,1-1.336.742,6.551,6.551,0,0,1-1.831.247,8.387,8.387,0,0,1-1.088-.049,4.463,4.463,0,0,1-.94-.2l.4-3.117.594.148a2.408,2.408,0,0,0,.594.049,1.679,1.679,0,0,0,1.237-.4,2.754,2.754,0,0,0,.643-1.138l.346-.94L46.2,95.515h4.106l2.523,7.223h.049l2.226-7.223h3.908Zm18.5-7.322a7.057,7.057,0,0,1-.346,2.276,6.589,6.589,0,0,1-1.039,1.93,5.583,5.583,0,0,1-1.682,1.336,4.817,4.817,0,0,1-2.276.495,5.429,5.429,0,0,1-1.979-.4,3.675,3.675,0,0,1-1.435-1.138h-.049v6.679H60.008V95.663h3.513v1.385h.049A4.973,4.973,0,0,1,65,95.861a4.293,4.293,0,0,1,2.177-.495,4.89,4.89,0,0,1,2.226.495,4.779,4.779,0,0,1,1.682,1.286,6.323,6.323,0,0,1,1.039,1.88A5.185,5.185,0,0,1,72.525,101.105Zm-3.612,0a3.766,3.766,0,0,0-.148-1.039,2.594,2.594,0,0,0-.495-.891,2.242,2.242,0,0,0-.841-.643,2.741,2.741,0,0,0-2.276,0,2.72,2.72,0,0,0-.841.643,2.932,2.932,0,0,0-.544.94,2.826,2.826,0,0,0,0,2.078,3.582,3.582,0,0,0,.544.94,2.72,2.72,0,0,0,.841.643,2.748,2.748,0,0,0,1.138.247,2.58,2.58,0,0,0,1.138-.247,2.72,2.72,0,0,0,.841-.643,2.837,2.837,0,0,0,.495-.94A4.412,4.412,0,0,0,68.913,101.105Zm9.5-2.82v4.3a1.9,1.9,0,0,0,.3,1.187,1.312,1.312,0,0,0,1.088.4,2.409,2.409,0,0,0,.594-.049,3.073,3.073,0,0,0,.495-.148l.049,2.721a6.84,6.84,0,0,1-2.177.346,5.167,5.167,0,0,1-1.88-.3,3.14,3.14,0,0,1-1.237-.792A2.877,2.877,0,0,1,75,104.667a8.194,8.194,0,0,1-.2-1.633v-4.75H73.02V95.515H74.8V92.546h3.612v2.968h2.622v2.771Z" transform="translate(0 -48.846)"></path>
    </g>
  </svg>
