<svg xmlns="http://www.w3.org/2000/svg" width="24.397" height="27.578" viewBox="0 0 24.397 27.578">
    <g id="youtube_2_" data-name="youtube (2)" transform="translate(-7.067)">
      <g id="Grupo_1989" data-name="Grupo 1989" transform="translate(7.067)">
        <path id="Caminho_2014" data-name="Caminho 2014" d="M31.042,39.935A3.033,3.033,0,0,0,28.4,37.648a85.878,85.878,0,0,0-9.135-.322,85.9,85.9,0,0,0-9.136.322A3.032,3.032,0,0,0,7.5,39.935a23.811,23.811,0,0,0-.43,5.5,23.806,23.806,0,0,0,.425,5.5,3.032,3.032,0,0,0,2.637,2.287,85.882,85.882,0,0,0,9.135.323,85.821,85.821,0,0,0,9.136-.323,3.033,3.033,0,0,0,2.637-2.287,23.824,23.824,0,0,0,.427-5.5A23.841,23.841,0,0,0,31.042,39.935ZM14.026,41.3H12.26v8.953H10.62V41.3H8.886V39.835h5.14Zm4.455,8.953H17.005v-.847a2.39,2.39,0,0,1-1.685.954.906.906,0,0,1-.95-.577,3.791,3.791,0,0,1-.13-1.154V42.491h1.474v5.716a4.181,4.181,0,0,0,.013.547c.035.218.147.329.345.329.3,0,.6-.217.932-.659V42.491H18.48v7.764Zm5.6-2.33a5.928,5.928,0,0,1-.149,1.564,1.159,1.159,0,0,1-1.178.873,2.032,2.032,0,0,1-1.524-.859v.752H19.757V39.835h1.474v3.4a2.021,2.021,0,0,1,1.524-.842,1.158,1.158,0,0,1,1.178.876,5.7,5.7,0,0,1,.149,1.561Zm5.564-1.3H26.7v1.376c0,.719.246,1.078.753,1.078a.624.624,0,0,0,.658-.564,8.447,8.447,0,0,0,.033-.953h1.5v.205c0,.453-.018.766-.032.906a1.952,1.952,0,0,1-.344.843,2.074,2.074,0,0,1-1.783.842,2.151,2.151,0,0,1-1.785-.8,2.9,2.9,0,0,1-.473-1.826V45.022a2.915,2.915,0,0,1,.456-1.829,2.135,2.135,0,0,1,1.766-.8,2.084,2.084,0,0,1,1.739.8,2.944,2.944,0,0,1,.456,1.829V46.63Z" transform="translate(-7.067 -25.973)"></path>
        <path id="Caminho_2015" data-name="Caminho 2015" d="M69.363,58.163q-.705,0-.706,1.077v.718h1.407V59.24C70.063,58.522,69.828,58.163,69.363,58.163Z" transform="translate(-48.808 -40.474)"></path>
        <path id="Caminho_2016" data-name="Caminho 2016" d="M52.207,58.163a1.008,1.008,0,0,0-.7.342v4.732a1,1,0,0,0,.7.347c.406,0,.612-.347.612-1.048V59.222C52.819,58.522,52.612,58.163,52.207,58.163Z" transform="translate(-37.302 -40.474)"></path>
        <path id="Caminho_2017" data-name="Caminho 2017" d="M54.012,16.774a2.284,2.284,0,0,0,1.624-.964v.856h1.422V8.82H55.636v6c-.315.445-.614.665-.9.665-.19,0-.3-.113-.333-.333a3.3,3.3,0,0,1-.017-.553V8.82H52.97v6.2a3.964,3.964,0,0,0,.126,1.167A.873.873,0,0,0,54.012,16.774Z" transform="translate(-38.197 -6.138)"></path>
        <path id="Caminho_2018" data-name="Caminho 2018" d="M19.332,6.265v4.264h1.577V6.265L22.805,0H21.211L20.135,4.135,19.016,0H17.357c.332.976.678,1.957,1.011,2.934A25.936,25.936,0,0,1,19.332,6.265Z" transform="translate(-14.227)"></path>
        <path id="Caminho_2019" data-name="Caminho 2019" d="M37.413,16.557a1.938,1.938,0,0,0,1.658-.8,3.069,3.069,0,0,0,.441-1.845V11.161a3.075,3.075,0,0,0-.441-1.848,2.108,2.108,0,0,0-3.314,0,3.049,3.049,0,0,0-.445,1.848v2.748a3.041,3.041,0,0,0,.445,1.845A1.938,1.938,0,0,0,37.413,16.557Zm-.679-5.681c0-.726.22-1.088.679-1.088s.678.362.678,1.088v3.3c0,.726-.22,1.089-.678,1.089s-.679-.363-.679-1.089Z" transform="translate(-26.219 -5.92)"></path>
      </g>
    </g>
  </svg>
