<svg xmlns="http://www.w3.org/2000/svg" id="instagram_2_" data-name="instagram (2)" width="26.316" height="26.155" viewBox="0 0 26.316 26.155">
    <path id="Caminho_2021" data-name="Caminho 2021" d="M22.461,0H3.855A3.848,3.848,0,0,0,0,3.831V22.323a3.848,3.848,0,0,0,3.855,3.831H22.461a3.848,3.848,0,0,0,3.855-3.831V3.831A3.848,3.848,0,0,0,22.461,0ZM13.21,19.922a6.9,6.9,0,1,1,6.939-6.9A6.925,6.925,0,0,1,13.21,19.922Zm7.71-12.26a2.3,2.3,0,1,1,2.313-2.3A2.309,2.309,0,0,1,20.919,7.662Zm0,0"></path>
    <path id="Caminho_2022" data-name="Caminho 2022" d="M392.877,90a.877.877,0,1,0,.877.877A.878.878,0,0,0,392.877,90Zm0,0" transform="translate(-371.864 -85.602)"></path>
    <path id="Caminho_2023" data-name="Caminho 2023" d="M156.841,150a4.841,4.841,0,1,0,4.841,4.841A4.847,4.847,0,0,0,156.841,150Zm0,0" transform="translate(-143.627 -141.818)"></path>
  </svg>
