<svg width="22" height="26" viewBox="0 0 22 26" fill="none" xmlns="http://www.w3.org/2000/svg">
    <path d="M22 10.6595C19.838 10.6648 17.7291 9.96762 15.9711 8.66633V17.742C15.9705 19.4229 15.4737 21.0635 14.547 22.4445C13.6204 23.8256 12.3081 24.8811 10.7857 25.4701C9.26322 26.0591 7.60318 26.1534 6.02751 25.7404C4.45185 25.3274 3.03566 24.4268 1.96831 23.1591C0.900969 21.8913 0.233342 20.3168 0.0547046 18.6461C-0.123933 16.9753 0.194933 15.288 0.968667 13.8098C1.7424 12.3315 2.93412 11.1328 4.38448 10.3738C5.83484 9.61481 7.4747 9.33181 9.08479 9.56262V14.1273C8.34801 13.8877 7.55684 13.8949 6.82426 14.148C6.09168 14.401 5.45516 14.887 5.0056 15.5365C4.55604 16.1859 4.31642 16.9657 4.32097 17.7644C4.32552 18.563 4.574 19.3398 5.03093 19.9838C5.48786 20.6277 6.12987 21.1059 6.86528 21.35C7.60069 21.5941 8.39189 21.5917 9.12589 21.3431C9.85989 21.0945 10.4992 20.6124 10.9524 19.9657C11.4056 19.3189 11.6497 18.5407 11.6497 17.742V0H15.9711C15.9681 0.377376 15.9987 0.754237 16.0624 1.12582C16.2126 1.95532 16.5248 2.74443 16.98 3.44486C17.4352 4.1453 18.0238 4.74235 18.7098 5.19949C19.6857 5.8668 20.83 6.22248 22 6.22223V10.6595Z" fill="black"></path>
  </svg>
