<svg width="51" height="51" viewBox="0 0 51 51" fill="none" xmlns="http://www.w3.org/2000/svg"><g clip-path="url(#clip0_737_645)"><path d="M1.08825 25.1946C1.08706 29.4796 2.21543 33.6636 4.36102 37.3514L0.883057 49.9516L13.8785 46.5705C17.4729 48.5121 21.5001 49.5295 25.5926 49.5297H25.6033C39.1133 49.5297 50.1108 38.6215 50.1166 25.2138C50.1192 18.7168 47.5716 12.6075 42.9429 8.01118C38.3151 3.41525 32.1602 0.882848 25.6023 0.879883C12.0907 0.879883 1.09403 11.7876 1.08845 25.1946" fill="url(#paint0_linear_737_645)"></path><path d="M0.213164 25.1869C0.21177 29.6261 1.38059 33.9597 3.60267 37.7795L0 50.8314L13.4614 47.3292C17.1705 49.3358 21.3465 50.3937 25.5958 50.3953H25.6068C39.6015 50.3953 50.994 39.0947 51 25.207C51.0024 18.4766 48.3631 12.1477 43.5691 7.3867C38.7745 2.6263 32.3995 0.00276744 25.6068 0C11.6097 0 0.218941 11.2991 0.213363 25.1869H0.213164ZM8.22973 37.1217L7.7271 36.33C5.61418 32.9964 4.49896 29.1441 4.50055 25.1885C4.50513 13.6453 13.9728 4.25395 25.6147 4.25395C31.2526 4.25633 36.5511 6.43707 40.5362 10.3937C44.5212 14.3508 46.714 19.6109 46.7126 25.2055C46.7074 36.7487 37.2396 46.1412 25.6068 46.1412H25.5984C21.8107 46.1392 18.0958 45.1299 14.8561 43.2225L14.0852 42.7688L6.09689 44.847L8.22973 37.1215V37.1217Z" fill="url(#paint1_linear_737_645)"></path><path d="M19.2599 14.6571C18.7846 13.6089 18.2843 13.5877 17.8323 13.5693C17.4622 13.5535 17.039 13.5547 16.6163 13.5547C16.1931 13.5547 15.5056 13.7126 14.9245 14.3422C14.3428 14.9724 12.7036 16.4953 12.7036 19.5927C12.7036 22.6902 14.9773 25.6836 15.2943 26.1041C15.6116 26.5237 19.6836 33.0834 26.1327 35.6069C31.4925 37.704 32.5833 37.2869 33.7465 37.1817C34.9099 37.077 37.5006 35.6593 38.0291 34.1891C38.558 32.7192 38.558 31.4593 38.3994 31.196C38.2409 30.9336 37.8177 30.7761 37.1832 30.4614C36.5485 30.1465 33.4291 28.6234 32.8476 28.4133C32.2659 28.2034 31.843 28.0986 31.4198 28.729C30.9967 29.3584 29.7816 30.7761 29.4113 31.196C29.0413 31.6168 28.671 31.6692 28.0367 31.3543C27.4018 31.0384 25.3584 30.3744 22.9341 28.2299C21.0479 26.5611 19.7745 24.5003 19.4043 23.87C19.0342 23.2406 19.3647 22.8994 19.6828 22.5857C19.9679 22.3036 20.3176 21.8505 20.6351 21.483C20.9515 21.1154 21.0571 20.853 21.2686 20.4332C21.4804 20.0129 21.3744 19.6453 21.216 19.3304C21.0571 19.0155 19.8241 15.9021 19.2599 14.6573" fill="white"></path></g><defs><linearGradient id="paint0_linear_737_645" x1="25.4998" y1="49.9516" x2="25.4998" y2="0.879883" gradientUnits="userSpaceOnUse"><stop stop-color="#1FAF38"></stop><stop offset="1" stop-color="#60D669"></stop></linearGradient><linearGradient id="paint1_linear_737_645" x1="25.5" y1="50.8314" x2="25.5" y2="0" gradientUnits="userSpaceOnUse"><stop stop-color="#F9F9F9"></stop><stop offset="1" stop-color="white"></stop></linearGradient><clipPath id="clip0_737_645"><rect width="51" height="51" fill="white"></rect></clipPath></defs></svg>
